<svg xmlns="http://www.w3.org/2000/svg" width="88" height="88" fill="none" viewBox="0 0 88 88"><g clip-path="url(#a)"><mask id="b" width="88" height="88" x="0" y="0" maskUnits="userSpaceOnUse" style="mask-type:luminance"><path fill="#fff" d="M88 0H0v88h88z"/></mask><g mask="url(#b)"><path fill="#a07025" d="m29.175 21.315-6.948 23.562c-.044.282-.092.528-.092.81v40.407h22.517v-64.78z"/><path fill="#fab621" d="M36.224 86.049h49.265V45.924a4.6 4.6 0 0 0-.19-1.382L78.441 21.27H29.176l6.857 23.272c.092.425.19.898.19 1.383z"/><path fill="#e52b2c" d="M67.4 76.19h2.383a2.81 2.81 0 0 0 2.809-2.808v-.19L71.4 56.481h-5.617l-1.192 16.71c-.092 1.572 1.045 2.9 2.618 2.998zm-15.425 0h2.237a2.814 2.814 0 0 0 2.812-2.808v-.283l-1.092-10.996H50.31L49.218 73.1c-.143 1.573.957 2.9 2.523 3.091h.278z"/><path fill="#f9b01e" d="M79.868 12.84c1.573 0 2.809 1.898 2.809 4.238 0 2.335-1.28 4.238-2.809 4.238H29.176V12.84z"/><path fill="#f6cead" d="M20.7 16.504a6.175 6.175 0 0 0 6.185 6.186h3.472s.239 0 .338.143l8.803 6.805c2.09 1.617 5.046 1.236 6.71-.81 1.518-1.903 1.383-4.668-.337-6.377l-8.664-8.668s-.239-.572 0-.806c.091-.092.234-.147.425-.147h25.373L48.918 5.119c-.898-.473-1.954-.766-2.944-.766h-35.89a.55.55 0 0 0-.572.575v10.139a.55.55 0 0 0 .572.572h9.853c.473 0 .854.429.854.858z"/><path fill="#e52b2c" d="M15.088 1.562H3.81v18.326h11.278z"/><path fill="#a07025" d="M36.224 86.049 29.176 79l-7.046 7.05z"/><path fill="#dadcdd" d="M55.922 62.104v-1.427l2.809-1.43S57.686 45.16 50.257 45.16v16.9h5.621zm7.048-11.232 2.81 5.621h5.62l2.813-5.62H62.934z"/><path fill="#1d1e1e" d="M55.747 60.238c-.19.128-.297.3-.297.491v.546a.364.364 0 0 1-.363.363h-3.902a.365.365 0 0 1-.366-.363V46.077c0-.117.062-.231.161-.297a.34.34 0 0 1 .206-.066q.065-.001.132.026l.744.29c1.983.77 3.586 2.91 4.767 6.361a32 32 0 0 1 1.327 5.995l.047.381a.36.36 0 0 1-.201.37zm-.517 2.394c.187 0 .345.14.363.326l1 10.223v.209a2.34 2.34 0 0 1-2.335 2.336h-2.236c-.605 0-1.221-.272-1.694-.741l-.928-.928a.37.37 0 0 1-.08-.4.37.37 0 0 1 .337-.223h.106q.005-.138.022-.286l1-10.19a.363.363 0 0 1 .364-.326zm-.58 13.977c1.786-.23 3.077-1.837 2.894-3.608l-1.1-10.934c-.004-.01-.004-.025-.004-.036v-.847c0-.14.08-.264.205-.327l2.31-1.125a.7.7 0 0 0 .294-.558c-.06-.722-.411-4.216-1.662-7.637-1.664-4.55-4.114-6.86-7.278-6.86a.527.527 0 0 0-.517.52v16.852c0 .088-.03.169-.084.231l-1.06 10.619v.381a3.33 3.33 0 0 0 3.326 3.33h2.677"/><path fill="#1d1e1e" d="M14.16 2.08c.202 0 .364.161.364.363v16.562a.36.36 0 0 1-.363.363H4.594a.36.36 0 0 1-.363-.363V2.443c0-.202.162-.363.363-.363zm67.948 14.2a.38.38 0 0 1 .099.25v.546c0 1.797-.943 3.718-2.34 3.718H44.99a.36.36 0 0 1-.257-.106l-6.71-6.71a.361.361 0 0 1 .257-.62h41.543c1.258 0 2.094 1.467 2.285 2.923m-46.285-3.9c-.183.212-.194.553-.014.73l9.665 9.657c1.536 1.485 1.698 3.986.367 5.684a4.3 4.3 0 0 1-3.414 1.668 4.23 4.23 0 0 1-2.614-.895l-8.8-6.802a1.2 1.2 0 0 0-.682-.245h-3.476a5.725 5.725 0 0 1-5.72-5.72 1.33 1.33 0 0 0-1.328-1.328H15.88a.36.36 0 0 1-.363-.362V5.153c0-.198.162-.363.363-.363h29.957a5.7 5.7 0 0 1 2.71.678l9.287 5.049c.147.08.22.25.176.41l-.264 1.027a.36.36 0 0 1-.352.275H36.168a.46.46 0 0 0-.345.15m-6.691 35.119a.524.524 0 0 0-.521.517v30.639c0 .095-.037.19-.106.256l-5.328 5.332a.37.37 0 0 1-.257.106.4.4 0 0 1-.14-.03.36.36 0 0 1-.226-.333V46.014c0-.477.106-.957.22-1.408a1 1 0 0 1 .036-.084l5.97-20.292a.37.37 0 0 1 .348-.26h.004c.16 0 .3.106.348.26l6.032 20.383c.194.488.194.939.194 1.302v38.06a.37.37 0 0 1-.224.337.4.4 0 0 1-.14.026.37.37 0 0 1-.26-.106l-5.327-5.328a.36.36 0 0 1-.106-.257V48.016c0-.312-.21-.517-.517-.517m55.682-2.875c.194.484.194.935.194 1.302V85.21a.37.37 0 0 1-.367.367H37.008a.37.37 0 0 1-.367-.367V45.927a6 6 0 0 0-.161-1.496l-.173-.682q-.016-.06-.01-.121L30.528 24.12a.362.362 0 0 1 .348-.47c.077 0 .158.027.224.078l8.103 6.332a5.13 5.13 0 0 0 3.205 1.104c.953 0 1.892-.257 2.717-.74 2.519-1.508 3.358-4.767 1.87-7.268l-.492-.829a.36.36 0 0 1 0-.367.36.36 0 0 1 .316-.183h30.976c.16 0 .3.107.348.26zM29.102 79.89a.35.35 0 0 1 .257.11l4.957 4.954a.37.37 0 0 1 .08.396.37.37 0 0 1-.336.227h-9.915a.36.36 0 0 1-.334-.227.36.36 0 0 1 .077-.396L28.846 80a.36.36 0 0 1 .256-.11m56.478 6.824a.527.527 0 0 0 .517-.52v-40.18a6 6 0 0 0-.161-1.489l-.015-.055-.015-.084L79.391 22.4a.37.37 0 0 1 .04-.297.36.36 0 0 1 .253-.165l.616-.103c1.738-.271 2.996-2.255 2.996-4.715 0-2.64-1.46-4.708-3.33-4.708H63.261a.4.4 0 0 1-.172-.045L49.163 4.782a6.64 6.64 0 0 0-3.227-.84H15.979a.36.36 0 0 1-.363-.362V1.607a.524.524 0 0 0-.52-.517H3.82q-.048-.001-.096-.015a.52.52 0 0 0-.34.488V19.84c0 .282.238.517.516.517h11.28a.524.524 0 0 0 .517-.517v-3.355c0-.201.165-.363.363-.363h3.912c.19 0 .349.147.363.337l.037.51c.25 3.476 3.153 6.2 6.61 6.2h.73a.365.365 0 0 1 .349.466L21.949 44.28a6.4 6.4 0 0 0-.25 1.745v40.168c0 .282.239.52.52.52z"/><path fill="#1d1e1e" d="M72.856 51.345a.36.36 0 0 1 .322.528l-1.98 3.901a.37.37 0 0 1-.326.198H66.3a.37.37 0 0 1-.326-.198l-1.98-3.901a.36.36 0 0 1 .01-.356.37.37 0 0 1 .312-.172zm-5.405 24.328q-.106.009-.18.007-.858-.002-1.558-.696l-.036-.037q-.016-.017-.033-.04l-.033-.04c-.389-.55-.565-1.14-.503-1.71l1.13-15.861a.36.36 0 0 1 .363-.341h4.007c.191 0 .352.15.363.337l1.137 15.899.004.025v.118c0 1.29-1.049 2.34-2.34 2.34zm2.714.99a3.33 3.33 0 0 0 3.036-3.56l-1.155-16.467a.4.4 0 0 1 .04-.187l2.677-5.409c.01-.036.033-.15.047-.278v-5.566a.49.49 0 0 0-.517-.517.524.524 0 0 0-.517.517v4.785a.365.365 0 0 1-.366.363h-3.902a.36.36 0 0 1-.363-.363v-4.785a.49.49 0 0 0-.517-.517.527.527 0 0 0-.52.517v4.785a.36.36 0 0 1-.363.363h-3.902a.36.36 0 0 1-.363-.363v-4.785c0-.308-.209-.517-.52-.517a.5.5 0 0 0-.37.161v5.951c.007.051.05.198.073.29l.003.007 2.659 5.372q.043.084.036.187l-1.155 16.437v.25a3.33 3.33 0 0 0 3.33 3.33z"/></g></g><defs><clipPath id="a"><path fill="#fff" d="M88 0H0v88h88z"/></clipPath></defs></svg>