<svg xmlns="http://www.w3.org/2000/svg" width="88" height="88" fill="none" viewBox="0 0 88 88"><path fill="#e63533" d="M5.385 56.476V44.669h7.201v5.21"/><mask id="a" width="88" height="88" x="0" y="0" maskUnits="userSpaceOnUse" style="mask-type:luminance"><path fill="#fff" d="M88 0H0v88h88z"/></mask><g mask="url(#a)"><path fill="#842926" d="M48.885 45.908c-5.49 0-9.96 4.47-9.96 9.959s4.47 9.97 9.96 9.97l-6.963 3.74-23.383-2.49 7.473-23.848 21.633.278"/><path fill="#e63533" d="M66.038 19.571h-8.763a6.6 6.6 0 0 0-6.597 6.596 6.6 6.6 0 0 0 6.597 6.597h8.763V19.57"/><path fill="#e63533" d="m56.997 61.357 8.444-4.015 4.283-2.027L60.55 32.76h-5.214s8.954 14.663 1.66 28.64zM27.25 71.781h35.282v-5.943h-27.49"/><path fill="#38474d" d="M17.567 58.867c-7.132 0-12.914 5.783-12.914 12.914 0 7.132 5.783 12.914 12.914 12.914 7.132 0 12.914-5.782 12.914-12.914S24.7 58.867 17.567 58.867"/><path fill="#842926" d="m58.523 32.762 6.963 24.589 4.29-2.035-9.181-22.554z"/><path fill="#9da8b9" d="M17.567 64.722a7.06 7.06 0 0 0-7.058 7.058 7.06 7.06 0 0 0 7.058 7.062 7.06 7.06 0 0 0 7.058-7.062 7.06 7.06 0 0 0-7.058-7.058"/><path fill="#38474d" d="M69.777 58.867c-7.131 0-12.914 5.783-12.914 12.914 0 7.132 5.783 12.914 12.914 12.914 7.132 0 12.914-5.782 12.914-12.914S76.91 58.867 69.777 58.867"/><path fill="#9da8b9" d="M69.778 64.722a7.06 7.06 0 0 0-7.059 7.058 7.06 7.06 0 0 0 7.059 7.062 7.06 7.06 0 0 0 7.058-7.062 7.06 7.06 0 0 0-7.058-7.058"/><path fill="#e63533" d="M29.42 71.781c4.058-2.214 6.87-6.504 6.87-11.487 0-7.19-5.855-13.046-13.045-13.046-7.195 0-21.725 3.963-21.725 24.533z"/><path fill="#842926" d="M32.043 62.285c0-7.194-5.856-13.05-13.05-13.05-2.079 0-4.744.323-7.469 1.295 4.107-2.534 8.577-3.275 11.72-3.275 7.193 0 13.049 5.812 13.049 13.05 0 4.98-2.769 9.317-6.875 11.484h-1.47c2.478-2.354 4.095-5.775 4.095-9.504"/><path fill="#e63533" d="M53.311 71.781c0-9.086 7.381-16.467 16.467-16.467s16.467 7.381 16.467 16.467z"/><path fill="#842926" d="M67.055 55.547a17 17 0 0 1 2.72-.23c9.087 0 16.468 7.38 16.468 16.466h-5.445c0-8.158-5.951-14.941-13.743-16.236"/><path fill="#a3d9f1" d="M66.037 19.573h-3.964v13.145h3.964z"/><path fill="#4b535c" d="m20.932 38.581 25.274 1.804c2.911.187 5.17 2.633 5.17 5.533H16.139v-2.856c0-2.582 2.167-4.617 4.749-4.474h.044zm33.575-16.243a3.828 3.828 0 1 0 0 7.657 3.828 3.828 0 0 0 0-7.657"/><path fill="#e8e6e7" d="M54.507 15.742a2.37 2.37 0 0 0 2.358-2.358v-7.37a2.37 2.37 0 0 0-2.358-2.357 2.37 2.37 0 0 0-2.358 2.358v7.38a2.365 2.365 0 0 0 2.358 2.347"/><path fill="#1d1e1e" d="M54.507 4.015c1.096 0 1.954.858 1.954 1.954v7.381a1.933 1.933 0 0 1-1.954 1.955 1.933 1.933 0 0 1-1.954-1.955V5.97c0-1.097.858-1.955 1.954-1.955m0 18.726c1.921 0 3.428 1.503 3.428 3.424a3.393 3.393 0 0 1-3.428 3.429 3.393 3.393 0 0 1-3.428-3.429 3.43 3.43 0 0 1 3.428-3.424m10.773-2.769c.198 0 .355.162.355.356v11.638c0 .198-.157.36-.355.36h-2.453a.36.36 0 0 1-.36-.36V20.328a.36.36 0 0 1 .36-.356zm-3.968 12.353a.35.35 0 0 1-.176.044H57.32a6 6 0 0 1-2.016-.333l-1.731-.635a.357.357 0 0 1 .048-.685l1.8-.393c1.918-.418 3.362-2.207 3.362-4.158 0-1.95-1.276-3.604-3.171-4.117l-.396-.107a.36.36 0 0 1-.26-.344v-.946c0-.158.102-.297.252-.341l.385-.118c.48-.146 1.049-.22 1.735-.22h4a.36.36 0 0 1 .356.356v11.638a.36.36 0 0 1-.356.36zM46.18 40.832c2.057.161 3.865 1.577 4.506 3.52l.231.704a.35.35 0 0 1-.047.319.35.35 0 0 1-.29.15H16.942a.357.357 0 0 1-.356-.359v-2.105c0-1.122.473-2.2 1.302-2.959.737-.707 1.694-1.085 2.768-1.085.074 0 .158 0 .246.011zm-34.353 4.763a.36.36 0 0 1 .36.36v3.453a.36.36 0 0 1-.188.312l-.275.15c-.843.47-1.62.998-2.31 1.57-.704.583-1.444 1.22-2.082 1.903l-.928.993a.36.36 0 0 1-.392.088.36.36 0 0 1-.224-.333v-8.628c0-.198.158-.36.356-.36h5.148c.146 0 .275.089.33.22a.37.37 0 0 1 .003.272zm31.365.803a.35.35 0 0 1 .333.238.35.35 0 0 1-.11.396l-1.17.954c-2.372 1.936-3.732 4.825-3.732 7.934 0 3.07 1.364 5.962 3.736 7.939l1.14.946a.354.354 0 0 1-.227.63H36.21a.36.36 0 0 1-.286-.143.37.37 0 0 1-.055-.319l.217-.696c.403-1.31.608-2.63.608-3.927 0-5.255-3.105-10.062-7.912-12.243a.35.35 0 0 1-.202-.4l.224-1.027a.354.354 0 0 1 .348-.282zm26.587 9.317c4.03 0 7.887 1.51 10.86 4.246a15.93 15.93 0 0 1 5.112 10.406l.044.583a.352.352 0 0 1-.356.385H54.115a.36.36 0 0 1-.264-.114.37.37 0 0 1-.092-.271l.044-.58a15.93 15.93 0 0 1 5.093-10.409 16 16 0 0 1 10.883-4.246m-46.545-8.067a12.6 12.6 0 0 1 8.954 3.7 12.6 12.6 0 0 1 3.703 8.958c0 4.532-2.438 8.734-6.358 10.963l-.124.073a.4.4 0 0 1-.176.048H2.253a.366.366 0 0 1-.36-.37l.02-.554c.289-8.254 2.98-14.421 8-18.333 5.144-4.048 11.03-4.485 13.32-4.485m52.844 24.545a.354.354 0 0 1 .349.436l-.151.653a6.65 6.65 0 0 1-6.497 5.166 6.655 6.655 0 0 1-6.498-5.159l-.154-.66a.38.38 0 0 1 .07-.304.36.36 0 0 1 .279-.132zm-52.21.044c.11 0 .213.048.279.136.07.084.092.194.07.3l-.154.653a6.64 6.64 0 0 1-6.498 5.166 6.655 6.655 0 0 1-6.493-5.155l-.154-.664a.35.35 0 0 1 .07-.3.34.34 0 0 1 .278-.136zm58.04-.044c.099 0 .198.044.264.117.07.077.103.18.088.283l-.07.586a12.5 12.5 0 0 1-4.07 7.91 12.45 12.45 0 0 1-8.352 3.215 12.45 12.45 0 0 1-8.353-3.216 12.5 12.5 0 0 1-4.066-7.912l-.063-.598a.37.37 0 0 1 .088-.279.36.36 0 0 1 .264-.117h4.338c.176 0 .326.128.352.304l.073.455c.547 3.593 3.715 6.303 7.378 6.303a7.45 7.45 0 0 0 4.862-1.808 7.54 7.54 0 0 0 2.511-4.499l.074-.443a.35.35 0 0 1 .352-.301zm-52.213.044c.102 0 .201.044.267.121.07.073.1.176.088.279l-.07.59a12.5 12.5 0 0 1-4.07 7.905 12.45 12.45 0 0 1-8.352 3.216 12.45 12.45 0 0 1-8.353-3.216 12.52 12.52 0 0 1-4.07-7.909l-.062-.601a.36.36 0 0 1 .092-.275.35.35 0 0 1 .264-.121h4.337c.176 0 .327.128.352.304l.074.455c.542 3.593 3.714 6.303 7.373 6.303a7.45 7.45 0 0 0 4.866-1.808 7.54 7.54 0 0 0 2.512-4.499l.073-.443a.355.355 0 0 1 .352-.301zM69.779 85.25c3.35 0 6.552-1.247 9.02-3.505a13.24 13.24 0 0 0 4.25-8.595l.047-.491a.353.353 0 0 1 .356-.323h2.79a.405.405 0 0 0 .403-.403 16.8 16.8 0 0 0-4.686-11.65c-3.01-3.149-7.04-5-11.352-5.21l-.34-.018a.36.36 0 0 1-.312-.22l-4.184-10.23a.43.43 0 0 0-.392-.275.4.4 0 0 0-.11.015l-.048.022a.4.4 0 0 0-.235.234l-.003.011a.34.34 0 0 0-.004.275c.004.004 3.967 9.677 3.967 9.677a.35.35 0 0 1-.022.319.36.36 0 0 1-.271.172l-.715.07c-2.497.245-5.027 1.14-7.315 2.588l-1.159.741a.36.36 0 0 1-.403-.015.36.36 0 0 1-.132-.381l.367-1.331c1.257-4.631 1.257-9.636-.004-14.868-.594-2.446-1.452-4.837-2.618-7.3l-.36-.77a.36.36 0 0 1 .327-.51h3.417c.147 0 .275.088.33.223l2.49 6.094c.07.169.224.279.392.279q.058 0 .11-.015a.1.1 0 0 1 .048-.022.4.4 0 0 0 .235-.234q0-.006.003-.011a.35.35 0 0 0 .004-.275c-.004-.004-2.3-5.555-2.3-5.555a.354.354 0 0 1 .33-.491h4.357c.22 0 .4-.18.4-.404V19.712a.4.4 0 0 0-.4-.4h-8.738c-.45 0-.902.04-1.309.118l-.641.124q-.033.01-.066.008a.36.36 0 0 1-.36-.356v-2.677c0-.154.096-.286.239-.337l.348-.125c1.052-.385 1.76-1.419 1.76-2.574V6.105c0-1.573-1.195-2.805-2.72-2.805h-.151c-1.445.033-2.625 1.309-2.625 2.849v7.29c0 1.154.707 2.188 1.763 2.573l.349.125a.36.36 0 0 1 .234.337v3.304a.35.35 0 0 1-.168.3l-.257.162a7.02 7.02 0 0 0-3.403 5.753v.48a6.98 6.98 0 0 0 4.298 6.2l.19.081c.077.033.14.096.176.169l.092.18.062.106a36 36 0 0 1 3.418 8.851c1.7 7.004 1.089 13.435-1.823 19.111l-.025.051a.4.4 0 0 1-.04.063l-.037.044c-.961 1.191-1.69 2.376-2.226 3.622l-.143.327a.36.36 0 0 1-.326.212h-5.06a9.45 9.45 0 0 1-6.791-2.856 9.5 9.5 0 0 1-2.732-6.86c.044-5.163 4.378-9.365 9.655-9.365h2.357c.22 0 .4-.18.4-.403 0-3.084-2.435-5.691-5.544-5.937l-25.278-1.8a5 5 0 0 0-.378-.018c-1.166 0-2.34.469-3.296 1.32-.964.85-1.54 2.167-1.54 3.527v2.856c0 .118.03.327.242.404l1.503.546a.356.356 0 0 1-.018.675l-1.525.473-.17.051c-.527.169-1.03.323-1.517.546l-.76.349a.36.36 0 0 1-.34-.022.36.36 0 0 1-.165-.301v-3.971a.4.4 0 0 0-.403-.403h-7.19a.4.4 0 0 0-.404.403v11.682a.35.35 0 0 1-.051.183l-.081.136c-2.482 3.99-3.74 9.104-3.74 15.21 0 .223.18.403.4.403h2.383c.183 0 .337.139.356.322l.044.492a13.3 13.3 0 0 0 4.25 8.58 13.33 13.33 0 0 0 9.03 3.527 13.33 13.33 0 0 0 9.024-3.502 13.24 13.24 0 0 0 4.25-8.594l.044-.492a.36.36 0 0 1 .355-.326h2.838a.401.401 0 1 0 0-.803h-2.031a.355.355 0 0 1-.253-.609l.92-.913c1.042-1.041 1.815-2.068 2.369-3.138l.154-.29a.36.36 0 0 1 .315-.19h17.831c.114 0 .22.054.29.146a.36.36 0 0 1 .051.315l-.212.69c-.28.913-.47 1.983-.565 3.179l-.037.487a.36.36 0 0 1-.355.334H40.156a.4.4 0 0 0 0 .803h15.95c.183 0 .337.14.355.323l.044.491a13.3 13.3 0 0 0 4.25 8.598 13.3 13.3 0 0 0 9.024 3.502"/><path fill="#1d1e1e" d="M11.427 54.993H24.11c.74 0 1.294.598 1.294 1.295 0 .696-.597 1.294-1.294 1.294H11.427a1.29 1.29 0 0 1-1.294-1.294c0-.697.608-1.295 1.294-1.295m3.32 4.205h9.361c.74 0 1.294.597 1.294 1.294s-.597 1.294-1.294 1.294h-9.361a1.29 1.29 0 0 1-1.294-1.294c0-.697.608-1.294 1.294-1.294m3.32 4.149h6.043c.74 0 1.294.597 1.294 1.294s-.598 1.294-1.294 1.294h-6.043a1.29 1.29 0 0 1-1.294-1.294c.01-.697.608-1.294 1.294-1.294"/></g></svg>