<svg width="88" height="88" viewBox="0 0 88 88" fill="none" xmlns="http://www.w3.org/2000/svg">
<path d="M5.38485 56.4756V44.6689H12.5862V49.8793" fill="#E63533"/>
<mask id="mask0_765_23" style="mask-type:luminance" maskUnits="userSpaceOnUse" x="0" y="0" width="88" height="88">
<path d="M88 -1.90735e-06H-1.90735e-06V88H88V-1.90735e-06Z" fill="white"/>
</mask>
<g mask="url(#mask0_765_23)">
<path d="M48.8845 45.9078C43.3955 45.9078 38.9259 50.3775 38.9259 55.8665C38.9259 61.3555 43.3955 65.8362 48.8845 65.8362L41.9215 69.5762L18.5392 67.0865L26.0119 43.2385L47.6452 43.5172" fill="#842926"/>
<path d="M66.0378 19.571H57.2745C53.6335 19.571 50.6782 22.5263 50.6782 26.1673C50.6782 29.8083 53.6335 32.7637 57.2745 32.7637H66.0378V19.626V19.571Z" fill="#E63533"/>
<path d="M56.9969 61.3574L65.4412 57.3424L69.7239 55.3147L60.5499 32.761H55.3359C55.3359 32.761 64.2899 47.424 56.9969 61.4014V61.3574Z" fill="#E63533"/>
<path d="M27.2508 71.7812H29.4178H62.5315V65.8376H35.0425" fill="#E63533"/>
<path d="M17.5672 58.8673C10.4355 58.8673 4.6532 64.6496 4.6532 71.7813C4.6532 78.913 10.4355 84.6953 17.5672 84.6953C24.6989 84.6953 30.4812 78.913 30.4812 71.7813C30.4812 64.6496 24.6989 58.8673 17.5672 58.8673Z" fill="#38474D"/>
<path d="M58.5231 32.7619L65.4861 57.3506L69.7761 55.3156L60.5948 32.7619H58.5231Z" fill="#842926"/>
<path d="M17.5672 64.7215C13.6695 64.7215 10.5088 67.8821 10.5088 71.7798C10.5088 75.6811 13.6695 78.8418 17.5672 78.8418C21.4648 78.8418 24.6255 75.6811 24.6255 71.7798C24.6255 67.8821 21.4648 64.7215 17.5672 64.7215Z" fill="#9DA8B9"/>
<path d="M69.7774 58.8673C62.6457 58.8673 56.8634 64.6496 56.8634 71.7813C56.8634 78.913 62.6457 84.6953 69.7774 84.6953C76.9091 84.6953 82.6914 78.913 82.6914 71.7813C82.6914 64.6496 76.9091 58.8673 69.7774 58.8673Z" fill="#38474D"/>
<path d="M69.7776 64.7215C65.8799 64.7215 62.7193 67.8821 62.7193 71.7798C62.7193 75.6811 65.8799 78.8418 69.7776 78.8418C73.6753 78.8418 76.8359 75.6811 76.8359 71.7798C76.8359 67.8821 73.6753 64.7215 69.7776 64.7215Z" fill="#9DA8B9"/>
<path d="M29.4192 71.7812C33.4782 69.5666 36.2905 65.2766 36.2905 60.2936C36.2905 53.1033 30.4349 47.2476 23.2445 47.2476C16.0505 47.2476 1.51953 51.2112 1.51953 71.7812H29.4192Z" fill="#E63533"/>
<path d="M32.0431 62.2851C32.0431 55.0911 26.1874 49.2354 18.9934 49.2354C16.9144 49.2354 14.2487 49.5581 11.5244 50.5297C15.6311 47.9961 20.1007 47.2554 23.2431 47.2554C30.4371 47.2554 36.2927 53.0671 36.2927 60.3051C36.2927 65.2844 33.5244 69.6221 29.4177 71.7891H27.9474C30.4261 69.4351 32.0431 66.0141 32.0431 62.2851Z" fill="#842926"/>
<path d="M53.3111 71.7812C53.3111 62.6953 60.6921 55.3143 69.7781 55.3143C78.8641 55.3143 86.2451 62.6953 86.2451 71.7812H53.3111Z" fill="#E63533"/>
<path d="M67.0553 55.5472C67.9316 55.4042 68.8593 55.3162 69.7759 55.3162C78.8619 55.3162 86.2429 62.6972 86.2429 71.7832H80.7979C80.7979 63.6249 74.8469 56.8415 67.0553 55.5472Z" fill="#842926"/>
<path d="M66.0369 19.5728H62.0732V32.7178H66.0369V19.5728Z" fill="#A3D9F1"/>
<path d="M20.9316 38.581L46.206 40.385C49.1173 40.572 51.376 43.0176 51.376 45.918H16.1393V43.0616C16.1393 40.4803 18.3063 38.4453 20.8876 38.5883H20.9316V38.581Z" fill="#4B535C"/>
<path d="M54.507 22.3381C52.3913 22.3381 50.679 24.0541 50.679 26.1661C50.679 28.2818 52.3913 29.9941 54.507 29.9941C56.6226 29.9941 58.335 28.2818 58.335 26.1661C58.335 24.0541 56.6226 22.3381 54.507 22.3381Z" fill="#4B535C"/>
<path d="M54.5068 15.7422C55.8012 15.7422 56.8645 14.6789 56.8645 13.3845V6.01452C56.8645 4.72019 55.8012 3.65685 54.5068 3.65685C53.2125 3.65685 52.1492 4.72019 52.1492 6.01452V13.3955C52.1602 14.6899 53.2125 15.7422 54.5068 15.7422Z" fill="#E8E6E7"/>
<path d="M54.5069 4.015C55.6033 4.015 56.4613 4.873 56.4613 5.96933V13.3503C56.4613 14.4467 55.6033 15.3047 54.5069 15.3047C53.4106 15.3047 52.5526 14.4467 52.5526 13.3503V5.96933C52.5526 4.873 53.4106 4.015 54.5069 4.015ZM54.5069 22.7407C56.4283 22.7407 57.9353 24.244 57.9353 26.1653C57.9353 28.0867 56.4283 29.5937 54.5069 29.5937C52.5856 29.5937 51.0786 28.0867 51.0786 26.1653C51.0786 24.277 52.6186 22.7407 54.5069 22.7407ZM65.2796 19.9723C65.4776 19.9723 65.6353 20.1337 65.6353 20.328V31.966C65.6353 32.164 65.4776 32.3253 65.2796 32.3253H62.8266C62.6286 32.3253 62.4673 32.164 62.4673 31.966V20.328C62.4673 20.1337 62.6286 19.9723 62.8266 19.9723H65.2796ZM61.3123 32.3253C61.2609 32.3547 61.2023 32.3693 61.1363 32.3693H57.3193C56.6006 32.3693 55.9039 32.252 55.3026 32.0357L53.5719 31.4013C53.4216 31.3463 53.3263 31.1997 53.3373 31.042C53.3483 30.8843 53.4619 30.7523 53.6196 30.7157L55.4199 30.3233C57.3376 29.9053 58.7823 28.116 58.7823 26.1653C58.7823 24.2147 57.5063 22.561 55.6106 22.0477L55.2146 21.9413C55.0606 21.8973 54.9543 21.758 54.9543 21.5967V20.6507C54.9543 20.493 55.0569 20.3537 55.2073 20.3097L55.5923 20.1923C56.0726 20.0457 56.6409 19.9723 57.3266 19.9723H61.3269C61.5213 19.9723 61.6826 20.1337 61.6826 20.328V31.966C61.6826 32.164 61.5213 32.3253 61.3269 32.3253H61.3123ZM46.1799 40.832C48.2369 40.9933 50.0446 42.4087 50.6863 44.352L50.9173 45.056C50.9539 45.166 50.9356 45.2833 50.8696 45.375C50.8036 45.4703 50.6936 45.5253 50.5799 45.5253H16.9419C16.7439 45.5253 16.5863 45.364 16.5863 45.166V43.0613C16.5863 41.9393 17.0593 40.8613 17.8879 40.1023C18.6249 39.3947 19.5819 39.017 20.6563 39.017C20.7296 39.017 20.8139 39.017 20.9019 39.028L46.1799 40.832ZM11.8269 45.595C12.0249 45.595 12.1863 45.7563 12.1863 45.9543V49.4083C12.1863 49.5367 12.1129 49.6577 11.9993 49.72L11.7243 49.8703C10.8809 50.3397 10.1036 50.8677 9.41426 51.4397C8.71026 52.0227 7.96959 52.6607 7.33159 53.3427L6.40393 54.3363C6.33426 54.4097 6.23893 54.45 6.1436 54.45C6.0996 54.45 6.05559 54.4427 6.01159 54.4243C5.87592 54.3693 5.78793 54.2373 5.78793 54.0907V45.463C5.78793 45.265 5.9456 45.1037 6.1436 45.1037H11.2916C11.4383 45.1037 11.5666 45.1917 11.6216 45.3237C11.6583 45.4153 11.6583 45.5107 11.6253 45.595H11.8269ZM43.1916 46.398C43.3419 46.398 43.4776 46.4933 43.5253 46.6363C43.5766 46.7793 43.5326 46.937 43.4153 47.0323L42.2456 47.9857C39.8733 49.9217 38.5129 52.811 38.5129 55.9203C38.5129 58.9893 39.8769 61.8823 42.2493 63.8587L43.3896 64.8047C43.5069 64.9 43.5509 65.0577 43.4996 65.2007C43.4483 65.34 43.3126 65.4353 43.1623 65.4353H36.2103C36.0966 65.4353 35.9903 65.3803 35.9243 65.2923C35.8583 65.2007 35.8363 65.0833 35.8693 64.9733L36.0856 64.2767C36.4889 62.9677 36.6943 61.6477 36.6943 60.3497C36.6943 55.0953 33.5886 50.2883 28.7816 48.1067C28.6276 48.037 28.5433 47.872 28.5799 47.707L28.8036 46.6803C28.8366 46.5153 28.9833 46.398 29.1519 46.398H43.1916ZM69.7786 55.715C73.8083 55.715 77.6656 57.2257 80.6393 59.961C83.5983 62.6817 85.4133 66.3777 85.7506 70.367L85.7946 70.95C85.8056 71.049 85.7689 71.148 85.7029 71.2213C85.6333 71.2947 85.5416 71.335 85.4389 71.335H54.1146C54.0156 71.335 53.9203 71.2947 53.8506 71.2213C53.7846 71.148 53.7516 71.049 53.7589 70.95L53.8029 70.3707C54.1329 66.385 55.9406 62.689 58.8959 59.961C61.8623 57.2257 65.7269 55.715 69.7786 55.715ZM23.2339 47.6483C26.6219 47.6483 29.8009 48.9647 32.1879 51.348C34.5749 53.735 35.8913 56.9177 35.8913 60.3057C35.8913 64.8377 33.4529 69.0397 29.5333 71.269L29.4086 71.3423C29.3536 71.3717 29.2949 71.39 29.2326 71.39H2.25326C2.15426 71.39 2.06259 71.3497 1.99659 71.28C1.92693 71.2103 1.89393 71.115 1.89393 71.0197L1.91226 70.466C2.20192 62.2123 4.89326 56.045 9.91293 52.1327C15.0573 48.0847 20.9423 47.6483 23.2339 47.6483ZM76.0779 72.193C76.1879 72.193 76.2906 72.2407 76.3566 72.325C76.4263 72.413 76.4519 72.523 76.4263 72.6293L76.2759 73.282C75.5646 76.3217 72.8953 78.4483 69.7786 78.4483C66.6693 78.4483 63.9963 76.329 63.2813 73.2893L63.1273 72.6293C63.1053 72.523 63.1309 72.413 63.1969 72.325C63.2666 72.2407 63.3693 72.193 63.4756 72.193H76.0779ZM23.8683 72.237C23.9783 72.237 24.0809 72.2847 24.1469 72.3727C24.2166 72.457 24.2386 72.567 24.2166 72.6733L24.0626 73.326C23.3549 76.3693 20.6856 78.4923 17.5653 78.4923C14.4596 78.4923 11.7866 76.373 11.0716 73.337L10.9176 72.6733C10.8956 72.567 10.9176 72.457 10.9873 72.3727C11.0533 72.2847 11.1559 72.237 11.2659 72.237H23.8683ZM81.9079 72.193C82.0069 72.193 82.1059 72.237 82.1719 72.3103C82.2416 72.3873 82.2746 72.49 82.2599 72.5927L82.1903 73.1793C81.8493 76.2227 80.4046 79.0313 78.1203 81.0883C75.8249 83.16 72.8586 84.304 69.7676 84.304C66.6766 84.304 63.7103 83.16 61.4149 81.0883C59.1343 79.0313 57.6859 76.2227 57.3486 73.1757L57.2863 72.578C57.2753 72.4753 57.3083 72.3763 57.3743 72.2993C57.4403 72.226 57.5393 72.182 57.6383 72.182H61.9759C62.1519 72.182 62.3023 72.3103 62.3279 72.4863L62.4013 72.941C62.9476 76.5343 66.1156 79.244 69.7786 79.244C71.5606 79.244 73.2876 78.6023 74.6406 77.4363C75.9826 76.274 76.8736 74.679 77.1523 72.9373L77.2256 72.4937C77.2513 72.3177 77.4016 72.193 77.5776 72.193H81.9079ZM29.6946 72.237C29.7973 72.237 29.8963 72.281 29.9623 72.358C30.0319 72.4313 30.0613 72.534 30.0503 72.6367L29.9806 73.227C29.6396 76.2667 28.1949 79.079 25.9106 81.1323C23.6153 83.204 20.6489 84.348 17.5579 84.348C14.4669 84.348 11.5006 83.204 9.20527 81.1323C6.9246 79.079 5.47626 76.2667 5.13526 73.2233L5.07292 72.622C5.06559 72.5193 5.09493 72.4203 5.16459 72.347C5.23059 72.27 5.32959 72.226 5.42859 72.226H9.76627C9.94227 72.226 10.0926 72.3543 10.1183 72.5303L10.1916 72.985C10.7343 76.5783 13.9059 79.288 17.5653 79.288C19.3509 79.288 21.0779 78.6463 22.4309 77.4803C23.7693 76.3217 24.6639 74.723 24.9426 72.9813L25.0159 72.5377C25.0416 72.3653 25.1919 72.237 25.3679 72.237H29.6946ZM69.7786 85.25C73.1299 85.25 76.3309 84.0033 78.7986 81.7447C81.2443 79.5007 82.7549 76.4463 83.0483 73.15L83.0959 72.6587C83.1106 72.4753 83.2646 72.336 83.4516 72.336H86.2419C86.4656 72.336 86.6453 72.1527 86.6453 71.9327C86.6453 67.5803 84.9806 63.4443 81.9593 60.2837C78.9489 57.134 74.9193 55.2823 70.6073 55.0733L70.2663 55.055C70.1306 55.0477 70.0096 54.9633 69.9546 54.835L65.7709 44.605C65.7013 44.4363 65.5473 44.33 65.3786 44.33C65.3383 44.33 65.3053 44.3337 65.2686 44.3447C65.2539 44.352 65.2393 44.3593 65.2209 44.3667C65.1109 44.4107 65.0303 44.4877 64.9863 44.6013C64.9863 44.605 64.9826 44.6087 64.9826 44.6123C64.9423 44.7077 64.9423 44.7993 64.9789 44.8873C64.9826 44.891 68.9463 54.5637 68.9463 54.5637C68.9903 54.6663 68.9829 54.7873 68.9243 54.8827C68.8656 54.978 68.7666 55.044 68.6529 55.055L67.9379 55.1247C65.4409 55.3703 62.9109 56.265 60.6229 57.7133L59.4643 58.454C59.4056 58.4907 59.3396 58.509 59.2736 58.509C59.1966 58.509 59.1233 58.487 59.0609 58.4393C58.9436 58.3513 58.8886 58.201 58.9289 58.058L59.2956 56.727C60.5533 52.096 60.5533 47.091 59.2919 41.8587C58.6979 39.413 57.8399 37.0223 56.6739 34.5583L56.3146 33.7883C56.2633 33.6783 56.2743 33.5463 56.3403 33.4437C56.4063 33.341 56.5163 33.2787 56.6409 33.2787H60.0583C60.2049 33.2787 60.3333 33.3667 60.3883 33.5023L62.8779 39.5963C62.9476 39.765 63.1016 39.875 63.2703 39.875C63.3106 39.875 63.3436 39.8713 63.3803 39.8603C63.3949 39.8493 63.4096 39.842 63.4279 39.8383C63.5379 39.7943 63.6186 39.7137 63.6626 39.6037C63.6626 39.6 63.6626 39.5963 63.6663 39.5927C63.7066 39.4973 63.7066 39.402 63.6699 39.3177C63.6663 39.314 61.3709 33.7627 61.3709 33.7627C61.3233 33.6527 61.3379 33.528 61.4039 33.429C61.4699 33.33 61.5799 33.2713 61.7009 33.2713H66.0569C66.2769 33.2713 66.4566 33.0917 66.4566 32.868V19.712C66.4566 19.492 66.2769 19.3123 66.0569 19.3123H57.3193C56.8683 19.3123 56.4173 19.3527 56.0103 19.4297L55.3686 19.5543C55.3466 19.5617 55.3246 19.5617 55.3026 19.5617C55.2183 19.5617 55.1376 19.5323 55.0753 19.481C54.9909 19.4113 54.9433 19.3123 54.9433 19.206V16.5293C54.9433 16.3753 55.0386 16.2433 55.1816 16.192L55.5299 16.0673C56.5823 15.6823 57.2899 14.6483 57.2899 13.4933V6.105C57.2899 4.532 56.0946 3.3 54.5693 3.3H54.4189C52.9743 3.333 51.7936 4.609 51.7936 6.149V13.4383C51.7936 14.5933 52.5013 15.6273 53.5573 16.0123L53.9056 16.137C54.0449 16.1883 54.1403 16.324 54.1403 16.4743V19.778C54.1403 19.899 54.0779 20.0127 53.9716 20.0787L53.7149 20.24C51.6689 21.4793 50.4003 23.628 50.3123 25.993V26.4733C50.4003 29.1903 52.0869 31.625 54.6096 32.6737L54.8003 32.7543C54.8773 32.7873 54.9396 32.8497 54.9763 32.923L55.0679 33.1027C55.0716 33.11 55.1303 33.209 55.1303 33.209C56.6373 35.9443 57.8179 39.006 58.5476 42.0603C60.2489 49.0637 59.6366 55.495 56.7253 61.171L56.6996 61.2223C56.6886 61.2443 56.6739 61.2663 56.6593 61.2847L56.6226 61.3287C55.6619 62.5203 54.9323 63.7047 54.3969 64.9513L54.2539 65.2777C54.1953 65.406 54.0669 65.4903 53.9276 65.4903H48.8676C46.2936 65.4903 43.8846 64.4747 42.0769 62.634C40.2693 60.786 39.2976 58.3513 39.3453 55.7737C39.3893 50.611 43.7233 46.409 48.9996 46.409H51.3573C51.5773 46.409 51.7569 46.2293 51.7569 46.0057C51.7569 42.922 49.3223 40.315 46.2129 40.0693L20.9349 38.269C20.7993 38.258 20.6783 38.2507 20.5573 38.2507C19.3913 38.2507 18.2179 38.72 17.2609 39.5707C16.2966 40.4213 15.7209 41.7377 15.7209 43.098V45.9543C15.7209 46.0717 15.7503 46.2807 15.9629 46.3577L17.4663 46.904C17.6093 46.9553 17.7046 47.0947 17.7009 47.245C17.6973 47.399 17.5946 47.5347 17.4479 47.5787L15.9226 48.0517L15.7539 48.103C15.2259 48.2717 14.7236 48.4257 14.2359 48.6493L13.4769 48.9977C13.4293 49.0197 13.3779 49.0307 13.3266 49.0307C13.2606 49.0307 13.1946 49.0123 13.1359 48.9757C13.0333 48.9097 12.9709 48.796 12.9709 48.675V44.704C12.9709 44.4803 12.7913 44.3007 12.5676 44.3007H5.37726C5.15359 44.3007 4.97393 44.4803 4.97393 44.704V56.386C4.97393 56.452 4.95559 56.5143 4.92259 56.5693L4.84192 56.705C2.35959 60.6943 1.10193 65.8093 1.10193 71.9143C1.10193 72.138 1.28159 72.3177 1.50159 72.3177H3.88493C4.06827 72.3177 4.22227 72.457 4.2406 72.6403L4.2846 73.1317C4.5816 76.4097 6.09226 79.4567 8.53426 81.7117C11.0129 83.985 14.2176 85.239 17.5653 85.239C20.9166 85.239 24.1213 83.996 26.5889 81.7373C29.0346 79.4933 30.5453 76.439 30.8386 73.1427L30.8826 72.6513C30.9009 72.468 31.0549 72.325 31.2383 72.325H34.0763C34.2999 72.325 34.4796 72.1453 34.4796 71.9253C34.4796 71.7017 34.2999 71.522 34.0763 71.522H32.0449C31.8983 71.522 31.7663 71.434 31.7113 71.302C31.6563 71.1663 31.6893 71.0123 31.7919 70.9133L32.7123 70.0003C33.7536 68.959 34.5273 67.9323 35.0809 66.8617L35.2349 66.572C35.2973 66.4547 35.4183 66.3813 35.5503 66.3813H53.3813C53.4949 66.3813 53.6013 66.4363 53.6709 66.528C53.7369 66.6197 53.7553 66.737 53.7223 66.8433L53.5096 67.5327C53.2309 68.4457 53.0403 69.5163 52.9449 70.7117L52.9083 71.1993C52.8936 71.3863 52.7396 71.533 52.5526 71.533H40.1556C39.9356 71.533 39.7559 71.7127 39.7559 71.9327C39.7559 72.1527 39.9356 72.336 40.1556 72.336H56.1056C56.2889 72.336 56.4429 72.4753 56.4613 72.6587L56.5053 73.15C56.7986 76.439 58.3093 79.4933 60.7549 81.7483C63.2116 84.0033 66.4163 85.25 69.7786 85.25Z" fill="#1D1E1E"/>
<path d="M11.427 54.9934H24.11C24.8506 54.9934 25.4043 55.591 25.4043 56.2877C25.4043 56.9844 24.8066 57.582 24.11 57.582H11.427C10.6863 57.582 10.1326 56.9844 10.1326 56.2877C10.1326 55.591 10.7413 54.9934 11.427 54.9934Z" fill="#1D1E1E"/>
<path d="M14.747 59.1975H24.108C24.8487 59.1975 25.4023 59.7951 25.4023 60.4918C25.4023 61.1885 24.8047 61.7861 24.108 61.7861H14.747C14.0063 61.7861 13.4527 61.1885 13.4527 60.4918C13.4527 59.7951 14.0613 59.1975 14.747 59.1975Z" fill="#1D1E1E"/>
<path d="M18.0668 63.3469H24.1095C24.8501 63.3469 25.4038 63.9445 25.4038 64.6412C25.4038 65.3379 24.8061 65.9355 24.1095 65.9355H18.0668C17.3261 65.9355 16.7725 65.3379 16.7725 64.6412C16.7835 63.9445 17.3811 63.3469 18.0668 63.3469Z" fill="#1D1E1E"/>
</g>
</svg>
