<svg xmlns="http://www.w3.org/2000/svg" width="88" height="88" fill="none" viewBox="0 0 88 88"><g clip-path="url(#a)"><mask id="b" width="88" height="88" x="0" y="0" maskUnits="userSpaceOnUse" style="mask-type:luminance"><path fill="#fff" d="M88 0H0v88h88z"/></mask><g mask="url(#b)"><path fill="#e2e1e1" d="M51.332 25.317c.044-2.516 1.06-4.936 2.727-6.74L71.023 4.3a1.7 1.7 0 0 1 2.291.088c.66.657.66 1.72 0 2.376l-12.95 12.951a2.02 2.02 0 0 0 0 2.867l5.73 5.728a2.02 2.02 0 0 0 2.868 0L81.9 15.362c.66-.66 1.72-.66 2.38 0 .615.616.655 1.58.084 2.291L70.09 34.615c-1.848 1.676-4.228 2.684-6.743 2.728h-4.891c-2.248 0-4.448.965-5.944 2.644L13.44 82.847c-1.892 2.071-5.467 1.804-7.443-.18-1.984-1.984-2.248-5.551-.176-7.44l42.86-39.072c1.675-1.54 2.643-3.707 2.643-5.947v-4.891z"/><path fill="#d9d7d5" d="M4.416 78.134v-.264c0-.18.044-.352.085-.488 0-.088 0-.18.088-.268.22-.7.616-1.408 1.188-1.94L48.68 36.148c.264-.224.488-.488.7-.756.129-.18.268-.348.393-.528.088-.128.18-.223.223-.352.308-.487.572-.968.752-1.496a8 8 0 0 0 .532-2.867v-4.891a8.2 8.2 0 0 1 .352-2.336c.084-.308.18-.616.264-.88a10.6 10.6 0 0 1 2.156-3.568l16.97-14.26s.179-.128.263-.18c.224-.124.488-.22.755-.22h.308c.349.045.7.22.965.489.66.656.66 1.72 0 2.376l-12.95 12.95c-.265.264-.444.532-.529.88 0 .129-.044.268-.088.396v.393c0 .18.044.392.128.572.088.267.268.487.448.66l1.76 1.76-1.232 1.063c-1.676 1.848-2.684 4.224-2.728 6.74v.128c0 2.555-1.452 4.85-3.652 6.123-.04 0-.084.044-.128.084-.04 0-.129.088-.18.129-.04 0-.084.044-.129.088-.084 0-.128.084-.18.128 0 0-.084.04-.128.084-.084.085-.18.129-.308.224l-.04.04a.8.8 0 0 0-.224.18s-.044.044-.084.088c-.088.04-.128.128-.224.18l-.084.084c-.088.084-.18.18-.268.264L21.573 73.84l-8.936 8.15a4.4 4.4 0 0 0-1.232 2.029c-.352.084-.7.18-1.06.18h-.704c-.22 0-.487-.045-.7-.085a.8.8 0 0 1-.308-.088c-.128 0-.224-.04-.352-.084 0 0-.22-.085-.308-.129h-.04c-.088 0-.224-.084-.308-.128-.088-.044-.224-.084-.308-.18h-.088c-.085-.044-.18-.084-.22-.128h-.044c-.085-.044-.18-.128-.264-.18h-.044c-.085-.044-.129-.128-.22-.18 0 0-.044 0-.088-.043-.085-.085-.18-.129-.264-.22-1.06-1.064-1.636-2.56-1.636-4.012v-.531z"/><path fill="#e2e1e1" d="M19.256 34.212a10.3 10.3 0 0 1-7.663-4.492l-3.876-5.68a21.86 21.86 0 0 1-3.48-15.898c.13-.924.617-1.72 1.273-2.292a3.95 3.95 0 0 1 2.42-.968 21.8 21.8 0 0 1 15.37 5.372l5.204 4.532c2.335 2.072 3.652 5.064 3.523 8.151l-.267 4.895a8.15 8.15 0 0 0 2.295 6.123L74.451 75.5c1.943 2.027 1.455 5.551-.616 7.443-2.112 1.844-5.68 1.888-7.44-.268l-36.428-45.15a8.04 8.04 0 0 0-5.82-2.997z"/><path fill="#d9d7d5" d="M4.237 8.141c.128-.924.616-1.72 1.276-2.292.264-.223.528-.392.795-.572.308-.128.613-.267.92-.352a3.5 3.5 0 0 1 .66-.084h2.703c-.04 4.448 1.232 8.808 3.791 12.51l3.872 5.68a10.25 10.25 0 0 0 5.731 4.14 27.3 27.3 0 0 1 5.16 1.988c1.54.792 3.035 1.536 3.035 1.58v.044c0 .128.084.22.129.308v.084c0 .084.084.224.128.308v.084c0 .088.084.18.128.268 0 0 0 .084.044.084.04.085.084.18.128.265 0 0 .04.088.085.128.044.088.084.128.128.224 0 .044.044.084.084.128.044.084.089.128.129.224 0 .04.088.084.128.18 0 .04.088.128.129.179a.4.4 0 0 0 .18.18s.087.084.087.128c.085.084.18.22.264.308L74.435 75.49c1.94 2.027 1.452 5.55-.616 7.44-2.112 1.847-5.68 1.891-7.443-.265l-36.429-45.15a8.03 8.03 0 0 0-5.815-2.996l-4.892-.308a10.28 10.28 0 0 1-7.663-4.491l-3.875-5.676A21.94 21.94 0 0 1 4.237 8.14"/><path fill="#1d1e1e" d="M7.966 5.216h.03c.293.026.575.026.876.026 5.254 0 10.285 1.881 14.168 5.295l5.199 4.532a9.88 9.88 0 0 1 3.377 7.802l-.264 4.91c-.158 2.336.704 4.671 2.358 6.41l40.483 41.616c.745.744 1.122 1.79 1.122 3.106v.029a5.32 5.32 0 0 1-1.738 3.689c-.92.817-2.196 1.287-3.505 1.287-.128 0-.264-.011-.392-.019-1.203-.102-2.27-.63-3.007-1.488a.3.3 0 0 1-.037-.052L29.94 36.874a.3.3 0 0 1-.07-.143 8.75 8.75 0 0 0-5.683-2.665l-4.891-.308c-2.985-.239-5.672-1.8-7.385-4.287l-3.875-5.69A21.53 21.53 0 0 1 4.629 8.164v-.007a.3.3 0 0 1 .011-.077c.176-.77.594-1.492 1.14-1.98.624-.561 1.405-.873 2.186-.884m61.974 79.52a.3.3 0 0 1 .106-.015c1.482 0 2.945-.55 4.015-1.504 1.174-1.063 1.925-2.665 2.006-4.286.04-1.478-.425-2.768-1.35-3.733L34.374 33.662c-1.488-1.485-2.28-3.597-2.174-5.786l.264-4.895a10.64 10.64 0 0 0-3.67-8.473L23.59 9.965A21.97 21.97 0 0 0 9.088 4.472c-.43 0-.803.011-1.14.033h-.011a4.2 4.2 0 0 0-2.633 1.052l-.004.004-.018.018a4.18 4.18 0 0 0-1.379 2.457l-.003.037c-.987 5.712.264 11.465 3.52 16.195l3.875 5.687c1.812 2.666 4.705 4.36 7.946 4.653l5.067.316a.4.4 0 0 1 .162.051 7.47 7.47 0 0 1 5.192 2.816l36.384 45.148c.814 1.037 2.057 1.675 3.509 1.796z"/><path fill="#1d1e1e" d="M10.013 84.729a.4.4 0 0 1 .066-.008c1.455-.04 2.753-.601 3.659-1.577l24.185-26.557a.4.4 0 0 0 .1-.275.37.37 0 0 0-.13-.275.38.38 0 0 0-.256-.1.4.4 0 0 0-.297.133L13.162 82.58c-.755.821-1.88 1.294-3.09 1.294h-.166A5.27 5.27 0 0 1 6.28 82.39c-.931-.931-1.489-2.343-1.489-3.776 0-1.236.448-2.303 1.29-3.091l27.149-24.73q.01-.01.026-.021a.28.28 0 0 0 .113-.22v-.015a.35.35 0 0 0-.11-.279l-.01-.015-.023-.022a.33.33 0 0 0-.25-.117.4.4 0 0 0-.27.114L5.418 75.067a.4.4 0 0 1-.095.062 4.94 4.94 0 0 0-1.368 3.45v.015c-.04 1.628.605 3.27 1.73 4.397 1.127 1.085 2.733 1.737 4.29 1.737zM50.357 42.74c.099 0 .19-.022.311-.135l2.138-2.362c1.5-1.606 3.575-2.522 5.702-2.522h4.89c2.494-.04 4.918-.987 6.832-2.666a1 1 0 0 1 .198-.268l14.256-16.936c.7-.85.645-2.031-.125-2.805-.421-.422-.902-.627-1.47-.627-.55 0-1.045.213-1.47.63L68.672 27.998a1.627 1.627 0 0 1-2.314 0l-.983-.983a.34.34 0 0 1 0-.484L80.19 11.713a.37.37 0 0 0 .11-.275.38.38 0 0 0-.389-.389.4.4 0 0 0-.282.114L64.814 25.976a.34.34 0 0 1-.484 0l-1.65-1.65a.34.34 0 0 1 0-.484L77.494 9.03a.39.39 0 0 0 0-.55.4.4 0 0 0-.28-.114.4.4 0 0 0-.281.114L62.119 23.292a.33.33 0 0 1-.242.1.34.34 0 0 1-.242-.1l-.982-.982a1.62 1.62 0 0 1 0-2.314l12.95-12.95a2.07 2.07 0 0 0 .609-1.471c0-.561-.21-1.07-.609-1.467-.4-.4-.916-.62-1.463-.62-.476 0-.96.177-1.364.496L53.682 18.368l-.014.01c-1.661 1.87-2.622 4.317-2.703 6.894v4.888c-.055 2.207-.975 4.275-2.526 5.683l-2.34 2.12-.025.022a.28.28 0 0 0-.114.22v.014a.35.35 0 0 0 .11.279l.011.015.022.022a.33.33 0 0 0 .25.117.4.4 0 0 0 .271-.114l2.34-2.115c1.752-1.632 2.76-3.905 2.76-6.237v-4.903c.044-2.34.95-4.616 2.552-6.42l.011-.015.026-.025a.1.1 0 0 1 .022-.019L71.257 4.567c.242-.228.546-.352.858-.352.33 0 .645.135.894.385.565.564.253 1.386.184 1.547l-.048.099a.3.3 0 0 1-.07.103L60.051 19.376a2.4 2.4 0 0 0-.707 1.709c0 .642.249 1.25.707 1.705l5.772 5.775a2.427 2.427 0 0 0 3.421-.004L82.19 15.614c.34-.34.682-.381.909-.381.323 0 .671.147.91.381.45.466.296 1.155.212 1.43l-.037.11a.4.4 0 0 1-.062.114l-14.318 17.02-.022.023-.037.033c-1.73 1.584-4.004 2.508-6.398 2.607h-4.925a8.43 8.43 0 0 0-6.24 2.76l-2.153 2.377a.39.39 0 0 0 .03.554l.014.018q.103.081.283.08"/></g></g><defs><clipPath id="a"><path fill="#fff" d="M88 0H0v88h88z"/></clipPath></defs></svg>