<svg xmlns="http://www.w3.org/2000/svg" width="166" height="167" fill="none" viewBox="0 0 166 167"><path fill="#ffe177" d="M69.202 152.857c38.141 7.414 75.114-17.715 82.58-56.127 7.467-38.413-17.4-75.562-55.54-82.976C58.1 6.34 21.127 31.47 13.66 69.882s17.4 75.561 55.541 82.975"/><path fill="#ffd15b" d="m96.241 13.755-4.977-.968c35.599 9.52 58.372 45.16 51.186 82.13-7.186 36.968-41.652 61.481-78.225 56.973l4.977.968c38.575 7.498 75.151-17.906 82.581-56.128 7.429-38.222-16.967-75.477-55.542-82.975"/><path fill="#ffc344" d="M72.247 137.192c29.551 5.744 58.196-13.726 63.981-43.486 5.785-29.761-13.481-58.544-43.032-64.288S35 43.144 29.216 72.904c-5.786 29.761 13.48 58.544 43.031 64.288"/><path fill="#d97b12" d="M104.794 99.3s.082-10.389-6.03-15.479c0 0 7.682-6.31 4.897-18.555 0 0-.783-9.257-10.373-13.071 0 0-8.967-3.694-16.785-.012L66.394 104.19s1.392 6.123 6.748 8.465l5.481-28.197c7.832-.428 11.578 3.551 11.578 3.551 7.236 5.959 5.652 14.104 5.652 14.104-1.448 10.773-10.768 12.213-10.768 12.213-4.842 1.66-10.198-.682-11.442-.924l-1.705 8.773s10.59 5.31 23.115-2.66c-.622-.121 9.05-6.694 9.741-20.216M90.04 78.873c-5.208 3.54-10.442.572-10.442.572l4.019-20.678c10.442-.571 11.225 8.685 11.225 8.685 1.771 7.497-4.802 11.421-4.802 11.421"/><path fill="#d97b12" d="m77.109 78.963-19.287-3.749-4.085 4.408 22.398 4.354z"/><path fill="#d97b12" d="m68.399 77.27-.975 5.012 48.529 9.433 3.585-5.156c-.122.627-39.318-6.992-51.14-9.29m6.397 13.598-19.287-3.749-4.085 4.408L73.82 95.88z"/><path fill="#d97b12" d="m66.085 89.174-.975 5.012 48.529 9.433 3.585-5.155c-.122.626-39.318-6.993-51.14-9.29"/></svg>