<svg xmlns="http://www.w3.org/2000/svg" width="240" height="80" fill="none" viewBox="0 0 240 80"><path fill="#a6a6a6" d="M220.27 0H19.07c-.734 0-1.459 0-2.19.004-.612.004-1.22.016-1.838.026a26.4 26.4 0 0 0-4.008.353 13.3 13.3 0 0 0-3.802 1.254 12.9 12.9 0 0 0-3.237 2.357A12.5 12.5 0 0 0 1.64 7.237a13.2 13.2 0 0 0-1.25 3.806 26 26 0 0 0-.359 4.004C.012 15.66.01 16.276 0 16.89v46.229c.01.62.012 1.222.03 1.843.016 1.342.136 2.68.359 4.004.22 1.326.641 2.61 1.25 3.809a12.4 12.4 0 0 0 2.356 3.228 12.6 12.6 0 0 0 3.237 2.358 13.4 13.4 0 0 0 3.802 1.261c1.325.218 2.665.336 4.008.354a83 83 0 0 0 1.838.021c.731.004 1.456.004 2.19.004h201.2c.718 0 1.449 0 2.168-.004.609 0 1.234-.007 1.843-.021a26.6 26.6 0 0 0 4-.354 13.6 13.6 0 0 0 3.817-1.261 12.6 12.6 0 0 0 3.234-2.358 12.8 12.8 0 0 0 2.363-3.228 13.2 13.2 0 0 0 1.239-3.809c.223-1.324.347-2.662.371-4.004.008-.62.008-1.222.008-1.843.015-.727.015-1.45.015-2.188V19.073c0-.733 0-1.46-.015-2.184q.002-.921-.008-1.842a27 27 0 0 0-.371-4.004 13.2 13.2 0 0 0-1.239-3.806 12.93 12.93 0 0 0-5.597-5.6 13.5 13.5 0 0 0-3.817-1.254 26 26 0 0 0-4-.354c-.609-.01-1.234-.021-1.843-.025C221.719 0 220.988 0 220.27 0"/><path fill="#000" d="M16.89 78.25c-.61 0-1.204-.008-1.809-.021a25.4 25.4 0 0 1-3.738-.327 11.8 11.8 0 0 1-3.314-1.095 10.8 10.8 0 0 1-2.794-2.034 10.6 10.6 0 0 1-2.04-2.793 11.4 11.4 0 0 1-1.087-3.314 25 25 0 0 1-.333-3.75c-.012-.422-.029-1.826-.029-1.826V16.889s.018-1.383.03-1.79c.015-1.254.125-2.506.33-3.744a11.5 11.5 0 0 1 1.087-3.324 10.8 10.8 0 0 1 2.03-2.796A11.1 11.1 0 0 1 8.029 3.19a11.7 11.7 0 0 1 3.307-1.087 25 25 0 0 1 3.751-.329l1.805-.024h205.537l1.826.025c1.245.015 2.488.124 3.717.326 1.162.197 2.288.566 3.342 1.095a11.2 11.2 0 0 1 4.83 4.84c.521 1.04.882 2.151 1.07 3.298a26 26 0 0 1 .348 3.774c.005.567.005 1.175.005 1.78.016.75.016 1.464.016 2.184V60.93c0 .726 0 1.435-.016 2.15 0 .65 0 1.246-.007 1.86a25.6 25.6 0 0 1-.342 3.706 11.5 11.5 0 0 1-1.08 3.34 11 11 0 0 1-2.031 2.772 10.8 10.8 0 0 1-2.799 2.045 11.7 11.7 0 0 1-3.336 1.1 25 25 0 0 1-3.739.326c-.585.013-1.199.021-1.794.021l-2.168.004z"/><path fill="#fff" d="M49.538 40.602a9.9 9.9 0 0 1 4.713-8.304 10.13 10.13 0 0 0-7.982-4.316c-3.359-.352-6.615 2.01-8.326 2.01-1.745 0-4.38-1.975-7.217-1.916a10.63 10.63 0 0 0-8.946 5.455c-3.868 6.697-.983 16.54 2.722 21.952 1.854 2.651 4.02 5.612 6.856 5.507 2.774-.115 3.81-1.769 7.158-1.769 3.318 0 4.29 1.769 7.182 1.702 2.977-.048 4.853-2.662 6.641-5.338a22 22 0 0 0 3.037-6.185 9.57 9.57 0 0 1-5.838-8.798m-5.464-16.18a9.74 9.74 0 0 0 2.23-6.982 9.9 9.9 0 0 0-6.416 3.32 9.27 9.27 0 0 0-2.287 6.722 8.2 8.2 0 0 0 6.473-3.06M84.605 54.28h-9.467l-2.274 6.712h-4.01l8.967-24.836h4.166l8.967 24.836h-4.078zm-8.487-3.098h7.504l-3.7-10.895h-.103zm34.201.758c0 5.627-3.011 9.242-7.556 9.242a6.14 6.14 0 0 1-5.698-3.168h-.085v8.969h-3.717V42.885h3.597v3.012h.069a6.42 6.42 0 0 1 5.765-3.201c4.596 0 7.625 3.633 7.625 9.244m-3.82 0c0-3.666-1.894-6.076-4.785-6.076-2.84 0-4.75 2.46-4.75 6.076 0 3.648 1.91 6.092 4.75 6.092 2.891 0 4.785-2.393 4.785-6.092m23.75 0c0 5.627-3.012 9.242-7.557 9.242a6.13 6.13 0 0 1-5.697-3.168h-.086v8.969h-3.717V42.885h3.598v3.012h.068a6.43 6.43 0 0 1 5.766-3.201c4.596 0 7.625 3.633 7.625 9.244m-3.82 0c0-3.666-1.895-6.076-4.785-6.076-2.84 0-4.75 2.46-4.75 6.076 0 3.648 1.91 6.092 4.75 6.092 2.89 0 4.785-2.393 4.785-6.092m16.992 2.132c.275 2.463 2.668 4.08 5.937 4.08 3.133 0 5.387-1.617 5.387-3.837 0-1.928-1.359-3.082-4.578-3.874l-3.219-.775c-4.56-1.101-6.677-3.234-6.677-6.695 0-4.285 3.734-7.229 9.037-7.229 5.248 0 8.845 2.944 8.966 7.229h-3.752c-.224-2.479-2.273-3.975-5.267-3.975s-5.043 1.514-5.043 3.717c0 1.756 1.309 2.789 4.51 3.58l2.736.672c5.096 1.205 7.213 3.252 7.213 6.884 0 4.647-3.701 7.557-9.588 7.557-5.508 0-9.227-2.842-9.467-7.334zM166.692 38.6v4.285h3.444v2.943h-3.444v9.982c0 1.551.69 2.274 2.203 2.274q.614-.01 1.223-.086v2.926c-.68.127-1.372.184-2.064.172-3.666 0-5.096-1.377-5.096-4.889V45.828h-2.633v-2.943h2.633V38.6zm5.438 13.34c0-5.698 3.355-9.278 8.588-9.278 5.25 0 8.59 3.58 8.59 9.277 0 5.713-3.323 9.278-8.59 9.278s-8.588-3.565-8.588-9.278m13.39 0c0-3.909-1.791-6.215-4.802-6.215-3.012 0-4.801 2.324-4.801 6.214 0 3.924 1.789 6.213 4.801 6.213 3.011 0 4.802-2.289 4.802-6.213m6.852-9.053h3.545v3.082h.086a4.32 4.32 0 0 1 4.355-3.271q.645-.002 1.274.138v3.477a5.2 5.2 0 0 0-1.67-.225 3.747 3.747 0 0 0-3.873 4.166v10.74h-3.717zm26.397 12.789c-.5 3.287-3.702 5.543-7.797 5.543-5.268 0-8.537-3.53-8.537-9.192 0-5.68 3.287-9.363 8.38-9.363 5.01 0 8.161 3.441 8.161 8.932v1.273h-12.789v.225a4.72 4.72 0 0 0 1.278 3.663 4.7 4.7 0 0 0 3.593 1.466 4.1 4.1 0 0 0 4.181-2.547zm-12.565-5.404h9.053A4.37 4.37 0 0 0 214.04 47a4.36 4.36 0 0 0-3.225-1.327 4.583 4.583 0 0 0-4.611 4.596M75.652 17.462a5.28 5.28 0 0 1 5.616 5.93c0 3.812-2.061 6.003-5.616 6.003h-4.31V17.463zm-2.457 10.246h2.25a3.75 3.75 0 0 0 3.936-4.292 3.76 3.76 0 0 0-3.936-4.268h-2.25zm10.166-2.819a4.266 4.266 0 1 1 8.495 0 4.268 4.268 0 1 1-8.495 0m6.666 0c0-1.953-.877-3.094-2.416-3.094-1.544 0-2.414 1.141-2.414 3.094 0 1.967.87 3.1 2.414 3.1 1.54 0 2.416-1.14 2.416-3.1m13.119 4.507h-1.843l-1.862-6.633h-.14l-1.854 6.632h-1.826L93.14 20.39h1.802l1.614 6.872h.132l1.852-6.872h1.705l1.852 6.872h.14l1.606-6.872h1.777zm4.561-9.006h1.711v1.43h.133a2.69 2.69 0 0 1 2.687-1.604 2.94 2.94 0 0 1 2.364.925 2.92 2.92 0 0 1 .753 2.425v5.83h-1.777v-5.384c0-1.447-.629-2.167-1.943-2.167a2.066 2.066 0 0 0-2.151 2.282v5.269h-1.777zm10.481-3.516h1.777v12.522h-1.777zm4.248 8.015a4.27 4.27 0 0 1 1.09-3.276 4.265 4.265 0 0 1 7.206 1.523c.188.564.255 1.16.199 1.753a4.28 4.28 0 0 1-1.088 3.28 4.26 4.26 0 0 1-3.16 1.4 4.266 4.266 0 0 1-4.247-4.68m6.666 0c0-1.952-.877-3.094-2.416-3.094-1.545 0-2.414 1.142-2.414 3.094 0 1.968.869 3.1 2.414 3.1 1.539 0 2.416-1.14 2.416-3.1m3.7 1.96c0-1.622 1.207-2.556 3.349-2.689l2.44-.14v-.778c0-.951-.629-1.488-1.844-1.488-.992 0-1.68.364-1.877 1h-1.721c.182-1.546 1.637-2.538 3.68-2.538 2.258 0 3.531 1.124 3.531 3.026v6.153h-1.711V28.13h-.14a3.03 3.03 0 0 1-2.705 1.414 2.72 2.72 0 0 1-2.764-1.593 2.7 2.7 0 0 1-.238-1.102m5.789-.77v-.753l-2.199.14c-1.241.084-1.803.506-1.803 1.3 0 .81.703 1.282 1.67 1.282a2.12 2.12 0 0 0 2.108-1.153c.128-.255.205-.532.224-.816m4.105-1.19c0-2.846 1.463-4.649 3.739-4.649a2.97 2.97 0 0 1 2.761 1.58h.133v-4.946h1.777v12.522h-1.703v-1.423h-.14a3.13 3.13 0 0 1-2.828 1.571c-2.291 0-3.739-1.803-3.739-4.655m1.836 0c0 1.91.901 3.06 2.407 3.06 1.498 0 2.423-1.167 2.423-3.053 0-1.876-.935-3.06-2.423-3.06-1.497 0-2.407 1.158-2.407 3.053m13.928 0a4.26 4.26 0 0 1 1.09-3.276 4.265 4.265 0 0 1 7.404 3.276 4.265 4.265 0 0 1-5.975 4.315 4.27 4.27 0 0 1-2.519-4.315m6.666 0c0-1.953-.877-3.094-2.416-3.094-1.545 0-2.414 1.141-2.414 3.094 0 1.967.869 3.1 2.414 3.1 1.539 0 2.416-1.14 2.416-3.1m4.213-4.499h1.711v1.43h.133a2.69 2.69 0 0 1 2.687-1.604 2.94 2.94 0 0 1 2.364.925 2.93 2.93 0 0 1 .753 2.425v5.83h-1.777v-5.384c0-1.447-.629-2.167-1.943-2.167a2.066 2.066 0 0 0-2.151 2.282v5.269h-1.777zm17.691-2.242v2.283h1.951v1.497h-1.951v4.63c0 .944.389 1.357 1.274 1.357q.34 0 .677-.041v1.48a6 6 0 0 1-.966.091c-1.977 0-2.764-.695-2.764-2.431v-5.086h-1.43V20.43h1.43v-2.283zm4.379-1.274h1.762v4.963h.141a2.77 2.77 0 0 1 2.746-1.613 2.97 2.97 0 0 1 3.101 3.357v5.814h-1.779V24.02c0-1.439-.67-2.168-1.926-2.168a2.103 2.103 0 0 0-2.267 2.284v5.26h-1.778zm18.114 10.09a3.66 3.66 0 0 1-3.903 2.606 4.092 4.092 0 0 1-4.16-4.649 4.154 4.154 0 0 1 4.152-4.705c2.506 0 4.018 1.712 4.018 4.54v.62h-6.359v.1a2.37 2.37 0 0 0 1.433 2.387c.305.13.633.196.965.193a2.16 2.16 0 0 0 2.143-1.092zm-6.252-2.902h4.548a2.16 2.16 0 0 0-.591-1.658 2.18 2.18 0 0 0-1.625-.675 2.305 2.305 0 0 0-2.332 2.333"/></svg>