<svg width="240" height="80" viewBox="0 0 240 80" fill="none" xmlns="http://www.w3.org/2000/svg">
<path d="M220.27 0.00026H19.0694C18.336 0.00026 17.6114 0.00026 16.8799 0.00426C16.2676 0.00826 15.6602 0.01988 15.042 0.02966C13.699 0.0454636 12.3592 0.163613 11.0342 0.38308C9.71105 0.607325 8.42935 1.03009 7.23244 1.63708C6.037 2.2492 4.94469 3.0446 3.99514 3.9944C3.04061 4.94153 2.24493 6.03629 1.6387 7.23658C1.0308 8.43448 0.609281 9.71814 0.3887 11.0432C0.166022 12.3666 0.0461968 13.7053 0.0303 15.0472C0.01174 15.6604 0.00978 16.2757 0 16.8889V63.1175C0.00978 63.7385 0.01174 64.3401 0.0303 64.9613C0.0462016 66.3031 0.166027 67.6417 0.3887 68.9651C0.608672 70.2909 1.03022 71.5753 1.6387 72.7737C2.24465 73.9701 3.04044 75.0604 3.99514 76.0023C4.94109 76.9563 6.0341 77.7522 7.23244 78.3597C8.42934 78.9683 9.7109 79.3936 11.0342 79.6213C12.3594 79.839 13.6991 79.9572 15.042 79.9749C15.6602 79.9885 16.2676 79.9963 16.8799 79.9963C17.6113 80.0003 18.336 80.0003 19.0694 80.0003H220.27C220.988 80.0003 221.719 80.0003 222.438 79.9963C223.047 79.9963 223.672 79.9885 224.281 79.9749C225.622 79.9581 226.959 79.8399 228.281 79.6213C229.609 79.392 230.895 78.9668 232.098 78.3597C233.295 77.7519 234.387 76.956 235.332 76.0023C236.284 75.0567 237.082 73.9672 237.695 72.7737C238.299 71.5744 238.717 70.2901 238.934 68.9651C239.157 67.6415 239.281 66.3032 239.305 64.9613C239.313 64.3401 239.313 63.7385 239.313 63.1175C239.328 62.3909 239.328 61.6683 239.328 60.9299V19.0725C239.328 18.3401 239.328 17.6135 239.313 16.8889C239.313 16.2757 239.313 15.6604 239.305 15.0471C239.281 13.7051 239.157 12.3667 238.934 11.0431C238.716 9.71882 238.299 8.43527 237.695 7.2365C236.461 4.83065 234.503 2.87231 232.098 1.6369C230.895 1.03139 229.609 0.608741 228.281 0.3829C226.959 0.162466 225.622 0.0442755 224.281 0.02938C223.672 0.01962 223.047 0.0079 222.438 0.004C221.719 0 220.988 0 220.27 0V0.00026Z" fill="#A6A6A6"/>
<path d="M16.8897 78.25C16.2804 78.25 15.6857 78.2422 15.0812 78.2286C13.8287 78.2123 12.5792 78.1032 11.3429 77.9024C10.1901 77.7039 9.07328 77.3345 8.02939 76.8066C6.99508 76.283 6.0517 75.5965 5.23539 74.7734C4.40727 73.9599 3.71783 73.0165 3.19437 71.9804C2.66515 70.9376 2.2989 69.8198 2.10837 68.666C1.90262 67.4262 1.7913 66.1726 1.77537 64.916C1.76269 64.4942 1.74609 63.0898 1.74609 63.0898V16.8887C1.74609 16.8887 1.76377 15.5059 1.77547 15.0996C1.79073 13.845 1.9014 12.5933 2.10653 11.3555C2.29741 10.1985 2.66395 9.0775 3.19345 8.03126C3.71498 6.99589 4.4006 6.05172 5.22373 5.23536C6.04594 4.41124 6.99234 3.72121 8.02841 3.19042C9.0699 2.66419 10.1846 2.29747 11.3351 2.10254C12.5754 1.89967 13.8293 1.78999 15.0861 1.77442L16.8907 1.75H222.428L224.254 1.7754C225.499 1.7902 226.742 1.8989 227.971 2.10058C229.133 2.29795 230.259 2.66723 231.313 3.19628C233.388 4.26597 235.077 5.95833 236.143 8.03614C236.664 9.07516 237.025 10.187 237.213 11.334C237.421 12.582 237.537 13.8435 237.561 15.1084C237.566 15.6748 237.566 16.2832 237.566 16.8887C237.582 17.6387 237.582 18.3525 237.582 19.0723V60.9296C237.582 61.6562 237.582 62.3652 237.566 63.08C237.566 63.7304 237.566 64.3262 237.559 64.9394C237.535 66.1818 237.421 67.4207 237.217 68.6464C237.03 69.8085 236.666 70.935 236.137 71.9864C235.61 73.0112 234.924 73.9465 234.106 74.7578C233.289 75.5854 232.344 76.2759 231.307 76.8028C230.256 77.3348 229.132 77.7055 227.971 77.9024C226.735 78.1043 225.485 78.2134 224.232 78.2286C223.647 78.2422 223.033 78.25 222.438 78.25L220.27 78.254L16.8897 78.25Z" fill="black"/>
<path d="M49.5377 40.6016C49.5592 38.9323 50.0027 37.2956 50.8267 35.8436C51.6508 34.3917 52.8287 33.1719 54.2509 32.2975C53.3474 31.0072 52.1555 29.9453 50.7698 29.1962C49.3842 28.4471 47.8429 28.0314 46.2685 27.9822C42.9101 27.6296 39.6542 29.9918 37.9427 29.9918C36.1982 29.9918 33.5632 28.0172 30.7257 28.0755C28.8904 28.1348 27.1017 28.6685 25.5339 29.6247C23.9662 30.5808 22.6728 31.9267 21.7799 33.5313C17.9119 40.2281 20.7971 50.0702 24.5023 55.4834C26.3561 58.1341 28.5227 61.095 31.3576 60.99C34.1317 60.875 35.1678 59.2211 38.5164 59.2211C41.8339 59.2211 42.8059 60.99 45.6984 60.9233C48.6751 60.875 50.5506 58.2608 52.3394 55.585C53.6713 53.6963 54.6963 51.6088 55.3762 49.4C53.6468 48.6685 52.171 47.4442 51.1327 45.8796C50.0945 44.315 49.5398 42.4794 49.5377 40.6016V40.6016Z" fill="white"/>
<path d="M44.0744 24.4217C45.6975 22.4733 46.4971 19.9689 46.3035 17.4404C43.8238 17.7009 41.5333 18.886 39.8883 20.7596C39.084 21.675 38.468 22.7399 38.0755 23.8934C37.683 25.0469 37.5217 26.2665 37.6009 27.4824C38.8412 27.4952 40.0682 27.2264 41.1895 26.6962C42.3108 26.166 43.2972 25.3883 44.0744 24.4217Z" fill="white"/>
<path d="M84.6045 54.2794H75.1377L72.8643 60.9922H68.8545L77.8213 36.1562H81.9873L90.9541 60.9922H86.876L84.6045 54.2794ZM76.1182 51.1817H83.6222L79.9229 40.2872H79.8194L76.1182 51.1817Z" fill="white"/>
<path d="M110.319 51.9399C110.319 57.5668 107.308 61.1821 102.763 61.1821C101.611 61.2423 100.466 60.9771 99.4589 60.4168C98.4513 59.8565 97.6218 59.0238 97.0655 58.0141H96.9795V66.9828H93.2627V42.8852H96.8604V45.8969H96.9288C97.5107 44.892 98.3541 44.0636 99.3694 43.4999C100.385 42.9362 101.534 42.6583 102.694 42.6957C107.29 42.6957 110.319 46.3285 110.319 51.9399ZM106.499 51.9399C106.499 48.2739 104.605 45.8637 101.714 45.8637C98.8741 45.8637 96.9639 48.3246 96.9639 51.9399C96.9639 55.5883 98.8741 58.0317 101.714 58.0317C104.605 58.0317 106.499 55.6391 106.499 51.9399Z" fill="white"/>
<path d="M130.249 51.9399C130.249 57.5668 127.237 61.182 122.692 61.182C121.541 61.2423 120.396 60.9771 119.389 60.4168C118.381 59.8565 117.552 59.0238 116.995 58.014H116.909V66.9828H113.192V42.8852H116.79V45.8969H116.858C117.44 44.892 118.284 44.0636 119.299 43.4999C120.314 42.9362 121.463 42.6583 122.624 42.6957C127.22 42.6957 130.249 46.3285 130.249 51.9399ZM126.429 51.9399C126.429 48.2739 124.534 45.8637 121.644 45.8637C118.804 45.8637 116.894 48.3246 116.894 51.9399C116.894 55.5883 118.804 58.0317 121.644 58.0317C124.534 58.0317 126.429 55.6391 126.429 51.9399H126.429Z" fill="white"/>
<path d="M143.421 54.0724C143.696 56.5353 146.089 58.1524 149.358 58.1524C152.491 58.1524 154.745 56.5352 154.745 54.3145C154.745 52.3867 153.386 51.2325 150.167 50.4414L146.948 49.666C142.388 48.5645 140.271 46.4316 140.271 42.9707C140.271 38.6855 144.005 35.7422 149.308 35.7422C154.556 35.7422 158.153 38.6855 158.274 42.9707H154.522C154.298 40.4922 152.249 38.9961 149.255 38.9961C146.261 38.9961 144.212 40.5098 144.212 42.7129C144.212 44.4688 145.521 45.502 148.722 46.2929L151.458 46.9648C156.554 48.1699 158.671 50.2168 158.671 53.8495C158.671 58.496 154.97 61.4062 149.083 61.4062C143.575 61.4062 139.856 58.5644 139.616 54.0722L143.421 54.0724Z" fill="white"/>
<path d="M166.692 38.5996V42.8848H170.136V45.8281H166.692V55.8105C166.692 57.3613 167.382 58.084 168.895 58.084C169.304 58.0769 169.712 58.0482 170.118 57.998V60.9238C169.438 61.0509 168.746 61.1085 168.054 61.0956C164.388 61.0956 162.958 59.7187 162.958 56.207V45.8281H160.325V42.8848H162.958V38.5996H166.692Z" fill="white"/>
<path d="M172.13 51.9394C172.13 46.2422 175.485 42.6621 180.718 42.6621C185.968 42.6621 189.308 46.2421 189.308 51.9394C189.308 57.6523 185.985 61.2168 180.718 61.2168C175.452 61.2168 172.13 57.6523 172.13 51.9394ZM185.52 51.9394C185.52 48.0312 183.729 45.7246 180.718 45.7246C177.706 45.7246 175.917 48.0488 175.917 51.9394C175.917 55.8633 177.706 58.1523 180.718 58.1523C183.729 58.1523 185.52 55.8633 185.52 51.9394H185.52Z" fill="white"/>
<path d="M192.372 42.885H195.917V45.967H196.003C196.243 45.0044 196.807 44.1538 197.6 43.558C198.393 42.9622 199.367 42.6577 200.358 42.6955C200.787 42.694 201.214 42.7406 201.632 42.8342V46.3108C201.091 46.1455 200.527 46.0697 199.962 46.0862C199.422 46.0643 198.884 46.1595 198.384 46.3652C197.884 46.571 197.435 46.8825 197.067 47.2783C196.699 47.674 196.421 48.1448 196.252 48.6581C196.083 49.1714 196.028 49.7152 196.089 50.2522V60.9924H192.372L192.372 42.885Z" fill="white"/>
<path d="M218.769 55.6738C218.269 58.9609 215.067 61.2168 210.972 61.2168C205.704 61.2168 202.435 57.6875 202.435 52.0254C202.435 46.3457 205.722 42.6621 210.815 42.6621C215.825 42.6621 218.976 46.1035 218.976 51.5937V52.8672H206.187V53.0918C206.128 53.7582 206.211 54.4295 206.431 55.0612C206.652 55.6929 207.004 56.2705 207.465 56.7555C207.925 57.2406 208.484 57.6222 209.103 57.8748C209.723 58.1274 210.389 58.2453 211.058 58.2207C211.936 58.303 212.817 58.0996 213.571 57.6407C214.324 57.1818 214.909 56.492 215.239 55.6738L218.769 55.6738ZM206.204 50.2695H215.257C215.29 49.6703 215.199 49.0707 214.99 48.5083C214.781 47.9459 214.457 47.4328 214.04 47.0013C213.623 46.5697 213.121 46.2291 212.567 46.0006C212.012 45.7722 211.415 45.6609 210.815 45.6738C210.21 45.6702 209.61 45.7865 209.05 46.016C208.49 46.2455 207.981 46.5836 207.552 47.0109C207.123 47.4381 206.784 47.9461 206.552 48.5054C206.321 49.0647 206.203 49.6643 206.204 50.2695V50.2695Z" fill="white"/>
<path d="M75.6523 17.4618C76.4316 17.4059 77.2135 17.5236 77.9417 17.8065C78.6699 18.0893 79.3263 18.5303 79.8635 19.0975C80.4006 19.6648 80.8052 20.3442 81.048 21.0867C81.2908 21.8293 81.3658 22.6164 81.2676 23.3915C81.2676 27.204 79.207 29.3955 75.6523 29.3955H71.3418V17.4618H75.6523ZM73.1953 27.7078H75.4453C76.0021 27.7411 76.5593 27.6498 77.0764 27.4405C77.5935 27.2313 78.0574 26.9094 78.4344 26.4983C78.8114 26.0872 79.0919 25.5971 79.2557 25.0639C79.4194 24.5307 79.4622 23.9676 79.3808 23.4158C79.4563 22.8661 79.4092 22.3066 79.2429 21.7772C79.0767 21.2479 78.7954 20.7619 78.4193 20.3541C78.0432 19.9462 77.5815 19.6266 77.0673 19.4181C76.5532 19.2096 75.9993 19.1175 75.4453 19.1482H73.1953V27.7078Z" fill="white"/>
<path d="M83.3614 24.8886C83.3048 24.2967 83.3725 23.6996 83.5602 23.1355C83.7478 22.5713 84.0514 22.0526 84.4512 21.6127C84.8511 21.1727 85.3386 20.8212 85.8823 20.5806C86.426 20.3401 87.0139 20.2158 87.6085 20.2158C88.203 20.2158 88.791 20.3401 89.3347 20.5806C89.8784 20.8212 90.3658 21.1727 90.7657 21.6127C91.1656 22.0526 91.4691 22.5713 91.6568 23.1355C91.8445 23.6996 91.9122 24.2967 91.8555 24.8886C91.9132 25.481 91.8463 26.079 91.6592 26.644C91.472 27.2091 91.1686 27.7287 90.7686 28.1695C90.3687 28.6104 89.8809 28.9626 89.3366 29.2037C88.7924 29.4448 88.2037 29.5693 87.6085 29.5693C87.0132 29.5693 86.4246 29.4448 85.8803 29.2037C85.3361 28.9626 84.8483 28.6104 84.4483 28.1695C84.0483 27.7287 83.745 27.2091 83.5578 26.644C83.3706 26.079 83.3037 25.481 83.3614 24.8886V24.8886ZM90.0274 24.8886C90.0274 22.9364 89.1504 21.7948 87.6114 21.7948C86.0665 21.7948 85.1974 22.9364 85.1974 24.8886C85.1974 26.8564 86.0665 27.9892 87.6114 27.9892C89.1505 27.9892 90.0274 26.8485 90.0274 24.8886H90.0274Z" fill="white"/>
<path d="M103.146 29.3955H101.303L99.4414 22.7627H99.3008L97.4473 29.3955H95.6211L93.1387 20.3896H94.9414L96.5547 27.2616H96.6875L98.5391 20.3896H100.244L102.096 27.2616H102.236L103.842 20.3896H105.619L103.146 29.3955Z" fill="white"/>
<path d="M107.707 20.3897H109.418V21.8204H109.551C109.776 21.3066 110.156 20.8758 110.638 20.5882C111.12 20.3006 111.679 20.1704 112.238 20.2159C112.676 20.183 113.116 20.249 113.526 20.4092C113.935 20.5694 114.303 20.8196 114.602 21.1413C114.902 21.463 115.125 21.8479 115.255 22.2676C115.385 22.6872 115.42 23.1308 115.355 23.5655V29.3955H113.578V24.0118C113.578 22.5646 112.949 21.8448 111.635 21.8448C111.337 21.831 111.04 21.8816 110.764 21.9933C110.488 22.1049 110.239 22.275 110.035 22.4917C109.831 22.7085 109.676 22.9669 109.581 23.2491C109.486 23.5314 109.453 23.8309 109.484 24.127V29.3956H107.707L107.707 20.3897Z" fill="white"/>
<path d="M118.188 16.874H119.965V29.3955H118.188V16.874Z" fill="white"/>
<path d="M122.436 24.8887C122.379 24.2969 122.447 23.6997 122.634 23.1355C122.822 22.5714 123.126 22.0527 123.526 21.6127C123.926 21.1727 124.413 20.8212 124.957 20.5806C125.501 20.3401 126.089 20.2158 126.683 20.2158C127.278 20.2158 127.866 20.3401 128.409 20.5806C128.953 20.8212 129.441 21.1727 129.841 21.6127C130.241 22.0527 130.544 22.5714 130.732 23.1355C130.92 23.6997 130.987 24.2969 130.931 24.8887C130.988 25.4812 130.921 26.0792 130.734 26.6442C130.547 27.2093 130.243 27.7289 129.843 28.1697C129.443 28.6105 128.956 28.9628 128.411 29.2038C127.867 29.4449 127.278 29.5694 126.683 29.5694C126.088 29.5694 125.499 29.4449 124.955 29.2038C124.411 28.9628 123.923 28.6105 123.523 28.1697C123.123 27.7289 122.819 27.2093 122.632 26.6442C122.445 26.0792 122.378 25.4812 122.436 24.8887V24.8887ZM129.102 24.8887C129.102 22.9366 128.225 21.795 126.686 21.795C125.141 21.795 124.272 22.9366 124.272 24.8888C124.272 26.8565 125.141 27.9893 126.686 27.9893C128.225 27.9893 129.102 26.8487 129.102 24.8887H129.102Z" fill="white"/>
<path d="M132.802 26.8486C132.802 25.2275 134.009 24.293 136.151 24.1601L138.591 24.0195V23.2422C138.591 22.291 137.962 21.7539 136.747 21.7539C135.755 21.7539 135.067 22.1182 134.87 22.7549H133.149C133.331 21.208 134.786 20.2158 136.829 20.2158C139.087 20.2158 140.36 21.3398 140.36 23.2422V29.3955H138.649V28.1299H138.509C138.223 28.5839 137.823 28.954 137.347 29.2024C136.872 29.4508 136.339 29.5686 135.804 29.5439C135.426 29.5832 135.044 29.5429 134.682 29.4255C134.32 29.3081 133.988 29.1162 133.705 28.8623C133.422 28.6083 133.195 28.298 133.04 27.9511C132.884 27.6043 132.803 27.2287 132.802 26.8486V26.8486ZM138.591 26.0791V25.3262L136.392 25.4668C135.151 25.5498 134.589 25.9717 134.589 26.7656C134.589 27.5761 135.292 28.0478 136.259 28.0478C136.542 28.0765 136.828 28.0479 137.1 27.9637C137.372 27.8795 137.625 27.7415 137.842 27.5578C138.06 27.3741 138.238 27.1486 138.367 26.8945C138.495 26.6405 138.572 26.3632 138.591 26.0791V26.0791Z" fill="white"/>
<path d="M142.696 24.8887C142.696 22.043 144.159 20.2403 146.435 20.2403C146.997 20.2143 147.556 20.3491 148.045 20.6289C148.534 20.9087 148.933 21.3219 149.196 21.8203H149.329V16.874H151.106V29.3955H149.403V27.9726H149.263C148.979 28.4676 148.566 28.8757 148.068 29.1527C147.569 29.4296 147.004 29.5649 146.435 29.5439C144.144 29.544 142.696 27.7412 142.696 24.8887ZM144.532 24.8887C144.532 26.7989 145.433 27.9483 146.939 27.9483C148.437 27.9483 149.362 26.7823 149.362 24.8965C149.362 23.0196 148.427 21.8369 146.939 21.8369C145.442 21.8369 144.532 22.9942 144.532 24.8887H144.532Z" fill="white"/>
<path d="M158.46 24.8886C158.403 24.2967 158.471 23.6996 158.659 23.1355C158.846 22.5713 159.15 22.0526 159.55 21.6127C159.95 21.1727 160.437 20.8212 160.981 20.5806C161.525 20.3401 162.113 20.2158 162.707 20.2158C163.302 20.2158 163.89 20.3401 164.433 20.5806C164.977 20.8212 165.464 21.1727 165.864 21.6127C166.264 22.0526 166.568 22.5713 166.755 23.1355C166.943 23.6996 167.011 24.2967 166.954 24.8886C167.012 25.481 166.945 26.079 166.758 26.644C166.571 27.2091 166.267 27.7287 165.867 28.1695C165.467 28.6104 164.979 28.9626 164.435 29.2037C163.891 29.4448 163.302 29.5693 162.707 29.5693C162.112 29.5693 161.523 29.4448 160.979 29.2037C160.435 28.9626 159.947 28.6104 159.547 28.1695C159.147 27.7287 158.844 27.2091 158.656 26.644C158.469 26.079 158.402 25.481 158.46 24.8886V24.8886ZM165.126 24.8886C165.126 22.9364 164.249 21.7948 162.71 21.7948C161.165 21.7948 160.296 22.9364 160.296 24.8886C160.296 26.8564 161.165 27.9892 162.71 27.9892C164.249 27.9892 165.126 26.8485 165.126 24.8886Z" fill="white"/>
<path d="M169.339 20.3897H171.05V21.8204H171.183C171.408 21.3066 171.788 20.8758 172.27 20.5882C172.751 20.3006 173.311 20.1704 173.87 20.2159C174.308 20.183 174.748 20.249 175.158 20.4092C175.567 20.5694 175.935 20.8196 176.234 21.1413C176.533 21.463 176.757 21.8479 176.887 22.2676C177.017 22.6872 177.052 23.1308 176.987 23.5655V29.3955H175.21V24.0118C175.21 22.5646 174.581 21.8448 173.267 21.8448C172.969 21.831 172.672 21.8816 172.396 21.9933C172.12 22.1049 171.871 22.275 171.667 22.4917C171.463 22.7085 171.308 22.9669 171.213 23.2491C171.118 23.5314 171.085 23.8309 171.116 24.127V29.3956H169.339V20.3897Z" fill="white"/>
<path d="M187.03 18.1475V20.4307H188.981V21.9277H187.03V26.5586C187.03 27.502 187.419 27.915 188.304 27.915C188.53 27.9143 188.757 27.9006 188.981 27.874V29.3545C188.662 29.4116 188.339 29.442 188.015 29.4453C186.038 29.4453 185.251 28.75 185.251 27.0137V21.9277H183.821V20.4306H185.251V18.1475H187.03Z" fill="white"/>
<path d="M191.409 16.874H193.171V21.8369H193.312C193.548 21.3183 193.938 20.8851 194.43 20.5964C194.921 20.3077 195.489 20.1775 196.058 20.2236C196.493 20.1999 196.929 20.2727 197.334 20.4368C197.738 20.6009 198.102 20.8522 198.398 21.1729C198.694 21.4936 198.916 21.8757 199.048 22.2919C199.179 22.7082 199.217 23.1484 199.159 23.5811V29.3955H197.38V24.0195C197.38 22.581 196.71 21.8525 195.454 21.8525C195.149 21.8275 194.841 21.8695 194.554 21.9756C194.266 22.0817 194.005 22.2493 193.789 22.4668C193.573 22.6843 193.408 22.9463 193.303 23.2346C193.199 23.5229 193.159 23.8304 193.187 24.1357V29.3955H191.409L191.409 16.874Z" fill="white"/>
<path d="M209.523 26.964C209.281 27.7871 208.758 28.4991 208.044 28.9754C207.331 29.4517 206.473 29.662 205.62 29.5695C205.027 29.5851 204.437 29.4715 203.892 29.2364C203.347 29.0014 202.86 28.6505 202.464 28.2083C202.068 27.766 201.773 27.2429 201.6 26.6752C201.427 26.1076 201.379 25.509 201.46 24.9211C201.381 24.3313 201.43 23.7314 201.603 23.1621C201.776 22.5927 202.069 22.0672 202.463 21.621C202.856 21.1749 203.341 20.8186 203.885 20.5761C204.428 20.3337 205.017 20.2109 205.612 20.216C208.118 20.216 209.63 21.928 209.63 24.756V25.3762H203.271V25.4758C203.243 25.8062 203.284 26.1389 203.393 26.4524C203.501 26.7659 203.673 27.0533 203.899 27.2962C204.125 27.5391 204.399 27.7322 204.704 27.863C205.009 27.9938 205.337 28.0594 205.669 28.0558C206.094 28.1068 206.525 28.0302 206.906 27.8358C207.288 27.6414 207.603 27.3379 207.812 26.964L209.523 26.964ZM203.271 24.0617H207.819C207.842 23.7594 207.801 23.4558 207.699 23.1704C207.597 22.8849 207.436 22.624 207.228 22.4043C207.019 22.1846 206.766 22.0109 206.487 21.8946C206.207 21.7782 205.906 21.7217 205.603 21.7287C205.295 21.7248 204.99 21.7825 204.705 21.8984C204.421 22.0143 204.162 22.186 203.945 22.4034C203.727 22.6209 203.556 22.8796 203.44 23.1644C203.324 23.4492 203.267 23.7543 203.271 24.0617H203.271Z" fill="white"/>
</svg>
