<svg width="32" height="32" viewBox="0 0 32 32" fill="none" xmlns="http://www.w3.org/2000/svg">
<rect width="32" height="32" fill="#F7F7F7"/>
<g clip-path="url(#clip0_744_5235)">
<path d="M32 16.0991C32 7.21568 24.8287 0 16 0C7.17129 0 0 7.21568 0 16.0991C0 24.1404 5.85847 30.7946 13.5056 32V20.7389H9.41949V16.0826H13.5056V12.5325C13.5056 8.50361 15.8851 6.25799 19.5281 6.25799C21.2841 6.25799 23.0892 6.60474 23.0892 6.60474V10.5346H21.0871C19.1015 10.5346 18.4615 11.7895 18.4615 13.0609V16.0826H22.9087L22.2031 20.7389H18.478V32C26.1415 30.7946 32 24.1404 32 16.0991Z" fill="#FB0021"/>
</g>
<defs>
<clipPath id="clip0_744_5235">
<rect width="32" height="32" fill="white"/>
</clipPath>
</defs>
</svg>
