<svg xmlns="http://www.w3.org/2000/svg" width="32" height="32" fill="none" viewBox="0 0 32 32"><g clip-path="url(#a)"><path fill="#fb0021" d="M32 16.1C32 7.215 24.829 0 16 0S0 7.216 0 16.1C0 24.14 5.858 30.794 13.506 32V20.739H9.419v-4.656h4.087v-3.55c0-4.03 2.38-6.275 6.022-6.275 1.756 0 3.561.347 3.561.347v3.93h-2.002c-1.985 0-2.625 1.255-2.625 2.526v3.022h4.447l-.706 4.656h-3.725V32C26.141 30.795 32 24.14 32 16.1"/></g><defs><clipPath id="a"><path fill="#fff" d="M0 0h32v32H0z"/></clipPath></defs></svg>