<svg xmlns="http://www.w3.org/2000/svg" width="32" height="32" fill="none" viewBox="0 0 32 32"><g clip-path="url(#a)"><path fill="#fb0021" fill-rule="evenodd" d="M16 3.093c4.206 0 4.7.02 6.363.094 1.537.069 2.368.325 2.925.544A4.9 4.9 0 0 1 27.1 4.906a4.8 4.8 0 0 1 1.175 1.812c.212.557.476 1.388.544 2.925.076 1.663.093 2.157.093 6.363s-.017 4.7-.093 6.362c-.069 1.538-.325 2.37-.544 2.925a4.9 4.9 0 0 1-1.175 1.813 4.8 4.8 0 0 1-1.812 1.175c-.557.212-1.388.475-2.925.544-1.663.075-2.157.093-6.363.093s-4.7-.018-6.362-.093c-1.538-.07-2.37-.325-2.926-.544-.737-.288-1.262-.625-1.812-1.175a4.8 4.8 0 0 1-1.175-1.813c-.213-.556-.475-1.387-.544-2.925-.075-1.662-.093-2.156-.093-6.362s.018-4.7.093-6.363c.07-1.537.325-2.368.544-2.925.288-.737.625-1.262 1.175-1.812A4.8 4.8 0 0 1 6.712 3.73c.557-.213 1.388-.475 2.926-.544 1.662-.081 2.156-.094 6.362-.094m0-2.837c-4.275 0-4.812.019-6.494.094-1.675.075-2.818.343-3.818.73A7.7 7.7 0 0 0 2.9 2.9a7.8 7.8 0 0 0-1.819 2.787c-.387 1-.656 2.144-.731 3.825C.275 11.187.256 11.725.256 16s.02 4.812.094 6.493c.075 1.675.344 2.819.731 3.825A7.7 7.7 0 0 0 2.9 29.106a7.8 7.8 0 0 0 2.788 1.819c1 .387 2.143.656 3.824.73 1.682.076 2.213.095 6.494.095 4.282 0 4.813-.02 6.494-.094 1.675-.075 2.819-.344 3.825-.731a7.7 7.7 0 0 0 2.788-1.82 7.8 7.8 0 0 0 1.818-2.787c.388-1 .657-2.143.732-3.825.075-1.68.094-2.212.094-6.493s-.019-4.813-.095-6.494c-.074-1.675-.343-2.819-.731-3.825a7.7 7.7 0 0 0-1.818-2.788 7.8 7.8 0 0 0-2.788-1.818c-1-.388-2.144-.657-3.825-.732C20.813.275 20.275.256 16 .256m0 7.656A8.09 8.09 0 0 0 7.913 16 8.09 8.09 0 0 0 16 24.087c4.463 0 8.088-3.625 8.088-8.087A8.093 8.093 0 0 0 16 7.912m0 13.338a5.25 5.25 0 1 1 0-10.5 5.25 5.25 0 1 1 0 10.5M26.293 7.593a1.888 1.888 0 1 1-3.775 0 1.888 1.888 0 0 1 3.775 0" clip-rule="evenodd"/></g><defs><clipPath id="a"><path fill="#fff" d="M0 0h32v32H0z"/></clipPath></defs></svg>