<svg xmlns="http://www.w3.org/2000/svg" width="32" height="32" fill="none" viewBox="0 0 32 32"><g clip-path="url(#a)"><path fill="#fb0021" d="M6.27 0C2.823 0 0 2.822 0 6.27v19.46C0 29.18 2.822 32 6.27 32h19.46c3.45 0 6.27-2.821 6.27-6.27V6.27C32 2.823 29.179 0 25.73 0zm1.578 5.28c1.653 0 2.672 1.086 2.703 2.513 0 1.395-1.05 2.511-2.735 2.511h-.031c-1.622 0-2.67-1.116-2.67-2.511 0-1.427 1.08-2.512 2.733-2.512m14.249 6.67c3.18 0 5.563 2.078 5.563 6.544v8.338h-4.832v-7.779c0-1.954-.7-3.288-2.448-3.288-1.335 0-2.131.899-2.48 1.767-.128.31-.16.745-.16 1.18v8.12h-4.832s.063-13.177 0-14.542h4.833v2.06c.642-.991 1.791-2.4 4.356-2.4M5.4 12.29h4.832v14.541H5.4z"/></g><defs><clipPath id="a"><path fill="#fff" d="M0 0h32v32H0z"/></clipPath></defs></svg>