<svg xmlns="http://www.w3.org/2000/svg" width="304" height="87" fill="none" viewBox="0 0 304 87"><path fill="#fb0021" d="m13.2 18.712 44.29-2.862a2.869 2.869 0 0 1 .366 5.725c-.633.044-44.08-2.863-44.656-2.863M0 51.348l44.29-2.869a2.874 2.874 0 0 1 .371 5.732C44.023 54.255.555 51.348 0 51.348m17.013-16.951L51.14 31.53a2.883 2.883 0 1 1-.022 5.747zm88.688-3.299a16.3 16.3 0 0 1-7.568 4.439 10.68 10.68 0 0 1 6.23 3.856 10.97 10.97 0 0 1 2.22 6.901 15 15 0 0 1-.233 2.586 16.4 16.4 0 0 1-6.73 11.04q-5.548 3.995-14.425 4H57.821l9.804-55.29h26.508q7.523 0 11.684 3.018t4.155 8.588c-.001.93-.079 1.858-.233 2.774a15.13 15.13 0 0 1-4.038 8.09M91.148 45.57a3.66 3.66 0 0 0-1.27-3.019c-.86-.71-2.13-1.06-3.8-1.06H77.2L75.453 51.6h8.943q5.725 0 6.658-4.939a5.7 5.7 0 0 0 .094-1.092m2.436-20.939q0-3.772-4.944-3.767h-7.767l-1.725 9.804h7.767q5.725 0 6.585-4.86.099-.585.084-1.177m36.93-4.712-7.767 44.001h-15.446l7.845-44.001zm-12.583-5.88a5.83 5.83 0 0 1-2.081-4.605 8.53 8.53 0 0 1 1.371-4.667 10 10 0 0 1 3.767-3.45A11.1 11.1 0 0 1 126.358 0q3.612 0 5.682 1.842a6.06 6.06 0 0 1 2.08 4.743 8.3 8.3 0 0 1-1.376 4.627 9.7 9.7 0 0 1-3.8 3.373 11.46 11.46 0 0 1-5.337 1.254q-3.595 0-5.676-1.803m38.464 7.14a17.8 17.8 0 0 1 8.078-1.809q6.902 0 11.096 4.55t4.183 12.471a36 36 0 0 1-.472 5.487 32.2 32.2 0 0 1-4.61 11.94 24.34 24.34 0 0 1-8.117 7.883 19.7 19.7 0 0 1-9.986 2.774q-4.471 0-7.407-1.808a10.54 10.54 0 0 1-4.277-4.86L140.1 84.939h-15.39l11.451-65.023h15.374l-1.11 6.103a17 17 0 0 1 5.97-4.843m7.451 18.43q0-3.223-1.842-4.993a6.5 6.5 0 0 0-4.744-1.803 9.14 9.14 0 0 0-6.158 2.43 10.9 10.9 0 0 0-3.49 6.658 11.4 11.4 0 0 0-.233 2.219q0 3.296 1.842 5.137a6.4 6.4 0 0 0 4.744 1.787 9.02 9.02 0 0 0 6.197-2.47 11.2 11.2 0 0 0 3.451-6.707c.151-.743.229-1.5.233-2.258"/><path fill="#fdc300" d="M229.094 33.108a16.27 16.27 0 0 1-7.573 4.439 10.63 10.63 0 0 1 6.236 3.844 10.96 10.96 0 0 1 2.219 6.902c-.003.867-.08 1.732-.233 2.585a16.38 16.38 0 0 1-6.713 11.046q-5.548 4.005-14.425 4h-27.39l9.803-55.285h26.509q7.523 0 11.684 3.018t4.155 8.588c-.003.92-.081 1.839-.233 2.746a15.13 15.13 0 0 1-4.039 8.117m-14.552 14.47a3.68 3.68 0 0 0-1.293-3.024c-.86-.705-2.13-1.055-3.8-1.055h-8.877l-1.726 10.115h8.944q5.726 0 6.657-4.938a5.7 5.7 0 0 0 .095-1.099m2.435-20.944q0-3.762-4.943-3.762h-7.767l-1.726 9.803h7.768q5.726 0 6.585-4.865.1-.585.083-1.176m36.931-4.705-7.767 43.996h-15.445l7.867-43.996zm-12.571-5.881a5.85 5.85 0 0 1-2.081-4.627 8.53 8.53 0 0 1 1.37-4.666 10.03 10.03 0 0 1 3.756-3.423 11.1 11.1 0 0 1 5.371-1.293q3.611 0 5.687 1.842a6.05 6.05 0 0 1 1.572 2.138c.36.82.534 1.71.508 2.606a8.3 8.3 0 0 1-1.376 4.627 9.74 9.74 0 0 1-3.8 3.373 11.5 11.5 0 0 1-5.337 1.254q-3.601-.028-5.67-1.831m38.452 7.133a17.86 17.86 0 0 1 8.078-1.803q6.897 0 11.096 4.55 4.2 4.549 4.2 12.471a36 36 0 0 1-.471 5.487 32.2 32.2 0 0 1-4.628 11.962 24.3 24.3 0 0 1-8.116 7.883 19.7 19.7 0 0 1-9.987 2.741q-4.466 0-7.406-1.803a10.54 10.54 0 0 1-4.278-4.86l-4.782 27.135h-15.39l11.451-65.017h15.373l-1.109 6.103a17 17 0 0 1 5.969-4.85m7.451 18.43q0-3.212-1.842-4.993a6.5 6.5 0 0 0-4.743-1.803 9.14 9.14 0 0 0-6.158 2.43 10.87 10.87 0 0 0-3.49 6.658 11.4 11.4 0 0 0-.233 2.219q0 3.296 1.842 5.137a6.4 6.4 0 0 0 4.743 1.842 9.02 9.02 0 0 0 6.197-2.469 11.2 11.2 0 0 0 3.451-6.707c.155-.762.233-1.537.233-2.314"/></svg>