<svg xmlns="http://www.w3.org/2000/svg" width="168" height="48" fill="none" viewBox="0 0 168 48"><g clip-path="url(#a)"><path fill="#fff" d="m7.287 10.332 24.452-1.58a1.584 1.584 0 1 1 .202 3.16c-.35.025-24.336-1.58-24.654-1.58M0 28.348l24.452-1.584a1.586 1.586 0 0 1 .205 3.164c-.352.025-24.35-1.58-24.657-1.58m9.391-9.357 18.84-1.584a1.592 1.592 0 1 1-.012 3.174zm48.965-1.822a9 9 0 0 1-4.178 2.45 5.9 5.9 0 0 1 3.44 2.129 6.05 6.05 0 0 1 1.225 3.81 8.3 8.3 0 0 1-.129 1.428A9.05 9.05 0 0 1 55 33.08q-3.063 2.205-7.964 2.208H31.922l5.413-30.525H51.97q4.153 0 6.45 1.666t2.294 4.741q0 .772-.128 1.532a8.35 8.35 0 0 1-2.23 4.466m-8.034 7.988a2.02 2.02 0 0 0-.702-1.666c-.474-.392-1.176-.585-2.098-.585h-4.9l-.965 5.58h4.937q3.161 0 3.676-2.726.055-.298.052-.603m1.344-11.56q0-2.082-2.729-2.08H44.65l-.953 5.413h4.289q3.16 0 3.635-2.683.055-.323.046-.65m20.39-2.599-4.288 24.292H59.24l4.331-24.293zM65.11 7.75a3.22 3.22 0 0 1-1.149-2.543 4.7 4.7 0 0 1 .757-2.576 5.53 5.53 0 0 1 2.08-1.905A6.14 6.14 0 0 1 69.763 0q1.993 0 3.136 1.017a3.34 3.34 0 0 1 1.149 2.62 4.6 4.6 0 0 1-.76 2.554 5.35 5.35 0 0 1-2.098 1.862 6.3 6.3 0 0 1-2.947.692q-1.984 0-3.133-.995m21.236 3.942a9.8 9.8 0 0 1 4.46-.999q3.81 0 6.125 2.512t2.31 6.886a20 20 0 0 1-.26 3.029 17.8 17.8 0 0 1-2.546 6.592 13.44 13.44 0 0 1-4.481 4.352 10.87 10.87 0 0 1-5.514 1.532q-2.467 0-4.089-1a5.82 5.82 0 0 1-2.361-2.682l-2.64 14.98h-8.497l6.322-35.897h8.487l-.612 3.369a9.4 9.4 0 0 1 3.296-2.674m4.113 10.175q0-1.779-1.017-2.757a3.6 3.6 0 0 0-2.619-.995 5.05 5.05 0 0 0-3.4 1.342 6 6 0 0 0-1.926 3.675 6.3 6.3 0 0 0-.129 1.225q0 1.82 1.017 2.837a3.54 3.54 0 0 0 2.619.986 4.98 4.98 0 0 0 3.421-1.363 6.18 6.18 0 0 0 1.905-3.703q.126-.617.13-1.247"/><path fill="#fdc300" d="M126.48 18.277a9 9 0 0 1-4.181 2.45 5.86 5.86 0 0 1 3.442 2.123 6.05 6.05 0 0 1 1.226 3.81 8.3 8.3 0 0 1-.129 1.428 9.05 9.05 0 0 1-3.706 6.098q-3.063 2.212-7.964 2.209h-15.122l5.412-30.523h14.635q4.154 0 6.451 1.666 2.297 1.667 2.294 4.742a9 9 0 0 1-.128 1.516 8.35 8.35 0 0 1-2.23 4.481m-8.035 7.988a2.04 2.04 0 0 0-.713-1.669q-.714-.583-2.098-.582h-4.901l-.953 5.584h4.938q3.16 0 3.675-2.726.056-.3.052-.607m1.345-11.562q0-2.077-2.729-2.077h-4.288l-.953 5.412h4.288q3.162 0 3.636-2.686.055-.323.046-.65m20.391-2.596-4.289 24.289h-8.527l4.343-24.29zm-6.941-3.247a3.23 3.23 0 0 1-1.149-2.555 4.7 4.7 0 0 1 .757-2.576 5.53 5.53 0 0 1 2.073-1.89 6.14 6.14 0 0 1 2.965-.713q1.995 0 3.14 1.017a3.34 3.34 0 0 1 1.149 2.618 4.6 4.6 0 0 1-.76 2.555 5.4 5.4 0 0 1-2.098 1.862 6.3 6.3 0 0 1-2.947.693q-1.988-.016-3.13-1.011m21.229 3.938a9.86 9.86 0 0 1 4.46-.995q3.807 0 6.126 2.511t2.319 6.886a20 20 0 0 1-.261 3.03 17.8 17.8 0 0 1-2.554 6.603 13.45 13.45 0 0 1-4.481 4.353 10.86 10.86 0 0 1-5.514 1.513q-2.466 0-4.089-.996a5.8 5.8 0 0 1-2.361-2.683L145.473 48h-8.496l6.322-35.895h8.487l-.613 3.37a9.4 9.4 0 0 1 3.296-2.678m4.114 10.176q0-1.774-1.017-2.757a3.6 3.6 0 0 0-2.619-.996 5.05 5.05 0 0 0-3.4 1.342 6 6 0 0 0-1.926 3.675 6.3 6.3 0 0 0-.129 1.226q0 1.82 1.017 2.836a3.53 3.53 0 0 0 2.619 1.017 5 5 0 0 0 3.421-1.363 6.18 6.18 0 0 0 1.905-3.703c.085-.42.129-.849.129-1.277"/></g><defs><clipPath id="a"><path fill="#fff" d="M0 0h167.374v48H0z"/></clipPath></defs></svg>