<svg xmlns="http://www.w3.org/2000/svg" width="270" height="80" fill="none" viewBox="0 0 270 80"><g clip-path="url(#a)"><path fill="#000" fill-rule="evenodd" d="M259.996 80H10.004C4.49 80 0 75.491 0 70V10C0 4.489 4.49 0 10.004 0h249.992C265.505 0 270 4.489 270 10v60c0 5.491-4.495 10-10.004 10" clip-rule="evenodd"/><path fill="#a6a6a6" fill-rule="evenodd" d="M259.996 1.601c4.625 0 8.41 3.776 8.41 8.399v60c0 4.623-3.76 8.399-8.41 8.399H10.004c-4.625 0-8.41-3.776-8.41-8.399V10c0-4.623 3.76-8.399 8.41-8.399zm0-1.601H10.004C4.49 0 0 4.509 0 10v60c0 5.511 4.49 10 10.004 10h249.992C265.505 80 270 75.511 270 70V10c0-5.491-4.495-10-10.004-10" clip-rule="evenodd"/><path fill="#fff" d="M142.237 26.464c-1.803 0-3.323-.633-4.525-1.88a6.42 6.42 0 0 1-1.828-4.589c0-1.82.616-3.361 1.828-4.584 1.197-1.246 2.717-1.88 4.52-1.88 1.783 0 3.303.634 4.525 1.88 1.212 1.262 1.827 2.804 1.827 4.584-.019 1.825-.635 3.367-1.827 4.584-1.197 1.256-2.717 1.885-4.52 1.885m-53.65 0c-1.763 0-3.293-.623-4.544-1.855C82.8 23.382 82.17 21.83 82.17 20s.631-3.381 1.873-4.608c1.227-1.232 2.756-1.856 4.545-1.856.874 0 1.723.175 2.538.529.8.344 1.45.813 1.932 1.386l.12.145-1.347 1.327-.139-.165c-.76-.907-1.778-1.351-3.124-1.351-1.202 0-2.25.428-3.115 1.276-.869.853-1.31 1.97-1.31 3.322s.441 2.469 1.31 3.322c.865.848 1.913 1.277 3.115 1.277 1.281 0 2.36-.43 3.198-1.277.497-.499.805-1.197.914-2.08h-4.316v-1.865h6.17l.024.17c.045.313.09.638.09.937 0 1.72-.517 3.112-1.54 4.14-1.163 1.217-2.683 1.835-4.52 1.835m71.332-.264h-1.902l-5.826-9.362.049 1.686v7.67h-1.902V13.802h2.17l.06.094 5.479 8.818-.05-1.68V13.8h1.922zm-31.978 0h-1.927V15.666h-3.343V13.8h8.608v1.865h-3.343V26.2zm-6.839 0h-1.922V13.8h1.922zm-10.803 0h-1.923V15.666h-3.343V13.8h8.608v1.865H110.3zm-6.482-.02h-7.372V13.8h7.372v1.866h-5.444v3.401h4.912v1.846h-4.912v3.401h5.444zm35.305-2.878c.86.863 1.903 1.297 3.115 1.297 1.246 0 2.265-.424 3.114-1.297.844-.848 1.271-1.96 1.271-3.302s-.427-2.459-1.266-3.302c-.859-.863-1.907-1.296-3.114-1.296-1.247 0-2.265.424-3.11 1.296-.844.848-1.271 1.96-1.271 3.302s.422 2.459 1.261 3.302"/><path fill="#fff" fill-rule="evenodd" d="M135.705 43.51c-4.694 0-8.499 3.577-8.499 8.51 0 4.887 3.83 8.508 8.499 8.508 4.694 0 8.499-3.6 8.499-8.508 0-4.933-3.805-8.51-8.499-8.51m0 13.647c-2.568 0-4.778-2.135-4.778-5.157 0-3.068 2.215-5.157 4.778-5.157 2.568 0 4.778 2.09 4.778 5.157.005 3.042-2.21 5.157-4.778 5.157M117.163 43.51c-4.694 0-8.499 3.576-8.499 8.509 0 4.887 3.83 8.508 8.499 8.508 4.694 0 8.499-3.6 8.499-8.508 0-4.933-3.81-8.51-8.499-8.51m0 13.646c-2.568 0-4.778-2.135-4.778-5.157 0-3.068 2.215-5.157 4.778-5.157 2.568 0 4.778 2.09 4.778 5.157 0 3.042-2.21 5.157-4.778 5.157M95.099 46.109v3.601h8.608c-.263 2.02-.929 3.512-1.947 4.534-1.262 1.267-3.209 2.643-6.64 2.643-5.29 0-9.428-4.289-9.428-9.6 0-5.312 4.137-9.602 9.427-9.602 2.856 0 4.937 1.133 6.482 2.579l2.543-2.554c-2.145-2.065-5.002-3.645-9.005-3.645-7.257 0-13.346 5.935-13.346 13.201 0 7.287 6.084 13.202 13.346 13.202 3.919 0 6.86-1.286 9.184-3.71 2.369-2.38 3.119-5.736 3.119-8.444 0-.843-.064-1.601-.198-2.245h-12.15c.005-.005.005.04.005.04m90.247 2.803c-.71-1.91-2.856-5.421-7.257-5.421-4.361 0-7.987 3.446-7.987 8.509 0 4.778 3.586 8.508 8.409 8.508 3.875 0 6.13-2.379 7.059-3.775l-2.876-1.935c-.954 1.421-2.28 2.354-4.163 2.354-1.902 0-3.233-.868-4.117-2.579l11.329-4.713c0 .005-.397-.948-.397-.948m-11.553 2.843c-.09-3.287 2.543-4.957 4.425-4.957 1.485 0 2.722.733 3.145 1.8zM164.589 60h3.72V35.002h-3.72zm-6.11-14.599h-.134c-.839-1.002-2.434-1.91-4.47-1.91-4.227 0-8.121 3.736-8.121 8.534 0 4.778 3.874 8.468 8.121 8.468 2.011 0 3.631-.912 4.47-1.935h.134v1.222c0 3.247-1.728 4.998-4.515 4.998-2.28 0-3.695-1.646-4.272-3.023l-3.233 1.357c.929 2.244 3.407 5.022 7.5 5.022 4.361 0 8.057-2.578 8.057-8.868V44h-3.517v1.4zm-4.272 11.756c-2.567 0-4.713-2.155-4.713-5.132 0-3.003 2.146-5.178 4.713-5.178 2.544 0 4.516 2.2 4.516 5.178.024 2.977-1.967 5.132-4.516 5.132m48.559-22.155h-8.896V60h3.72v-9.467h5.181c4.117 0 8.165-2.997 8.165-7.755s-4.033-7.776-8.17-7.776m.109 12.04h-5.29v-8.578h5.29c2.786 0 4.361 2.309 4.361 4.289 0 1.96-1.594 4.289-4.361 4.289m22.973-3.576c-2.702 0-5.489 1.202-6.641 3.82l3.298 1.377c.71-1.377 2.011-1.845 3.387-1.845 1.928 0 3.875 1.157 3.919 3.221v.265c-.665-.38-2.126-.958-3.874-.958-3.561 0-7.172 1.955-7.172 5.621 0 3.357 2.92 5.511 6.174 5.511 2.498 0 3.874-1.132 4.733-2.443h.134v1.935h3.587v-9.576c0-4.46-3.299-6.928-7.545-6.928m-.467 13.69c-1.217 0-2.921-.598-2.921-2.134 0-1.935 2.126-2.668 3.939-2.668 1.639 0 2.414.354 3.388.843a4.486 4.486 0 0 1-4.406 3.96M246.476 44l-4.272 10.843h-.134L237.644 44h-4.003l6.641 15.157-3.785 8.424h3.874L250.589 44zm-33.488 16h3.72V35.002h-3.72z" clip-rule="evenodd"/><path fill="url(#b)" fill-rule="evenodd" d="M20.782 15.067c-.576.624-.909 1.576-.909 2.823v44.225c0 1.246.333 2.2.93 2.798l.153.134L45.633 40.27v-.553L20.936 14.933z" clip-rule="evenodd"/><path fill="url(#c)" fill-rule="evenodd" d="m53.843 48.554-8.23-8.265v-.578l8.23-8.265.179.11 9.735 5.556c2.787 1.576 2.787 4.18 0 5.776l-9.735 5.556z" clip-rule="evenodd"/><path fill="url(#d)" fill-rule="evenodd" d="M54.022 48.444 45.612 40l-24.83 24.933c.91.977 2.434 1.087 4.138.134z" clip-rule="evenodd"/><path fill="url(#e)" fill-rule="evenodd" d="M54.022 31.556 24.92 14.957c-1.704-.977-3.234-.843-4.138.135L45.612 40z" clip-rule="evenodd"/><path fill="#000" fill-rule="evenodd" d="M53.843 48.265 24.94 64.753c-1.615.933-3.055.868-3.984.02l-.154.155.154.135c.929.843 2.37.912 3.984-.02l29.102-16.599z" clip-rule="evenodd" opacity=".2"/><path fill="#000" fill-rule="evenodd" d="m63.757 42.599-9.939 5.665.179.18 9.735-5.556c1.396-.798 2.082-1.846 2.082-2.888-.085.958-.795 1.865-2.057 2.599" clip-rule="evenodd" opacity=".12"/><path fill="#fff" fill-rule="evenodd" d="M24.92 15.247 63.757 37.4c1.262.713 1.972 1.646 2.082 2.599 0-1.043-.686-2.09-2.082-2.888L24.92 14.957c-2.787-1.6-5.047-.264-5.047 2.933v.29c0-3.203 2.26-4.514 5.047-2.933" clip-rule="evenodd" opacity=".25"/></g><defs><linearGradient id="b" x1="43.419" x2="3.87" y1="17.413" y2="27.908" gradientUnits="userSpaceOnUse"><stop stop-color="#00a0ff"/><stop offset=".007" stop-color="#00a1ff"/><stop offset=".26" stop-color="#00beff"/><stop offset=".512" stop-color="#00d2ff"/><stop offset=".76" stop-color="#00dfff"/><stop offset="1" stop-color="#00e3ff"/></linearGradient><linearGradient id="c" x1="67.391" x2="19.195" y1="40" y2="40" gradientUnits="userSpaceOnUse"><stop stop-color="#ffe000"/><stop offset=".409" stop-color="#ffbd00"/><stop offset=".775" stop-color="orange"/><stop offset="1" stop-color="#ff9c00"/></linearGradient><linearGradient id="d" x1="49.449" x2="17.524" y1="44.595" y2="98.108" gradientUnits="userSpaceOnUse"><stop stop-color="#ff3a44"/><stop offset="1" stop-color="#c31162"/></linearGradient><linearGradient id="e" x1="14.53" x2="28.773" y1=".357" y2="24.257" gradientUnits="userSpaceOnUse"><stop stop-color="#32a071"/><stop offset=".069" stop-color="#2da771"/><stop offset=".476" stop-color="#15cf74"/><stop offset=".801" stop-color="#06e775"/><stop offset="1" stop-color="#00f076"/></linearGradient><clipPath id="a"><rect width="270" height="80" fill="#fff" rx="5"/></clipPath></defs></svg>