<svg xmlns="http://www.w3.org/2000/svg" width="32" height="32" fill="none" viewBox="0 0 32 32"><g clip-path="url(#a)"><path fill="#fb0021" d="M32 5.007c-1.178.578-2.441.97-3.77 1.146 1.356-.9 2.394-2.327 2.886-4.022a12.5 12.5 0 0 1-4.171 1.766C25.747 2.481 24.043 1.6 22.154 1.6c-3.625 0-6.565 3.256-6.565 7.271 0 .57.058 1.126.17 1.657-5.455-.303-10.292-3.199-13.53-7.6a7.8 7.8 0 0 0-.887 3.657c0 2.523 1.16 4.75 2.92 6.052a6.1 6.1 0 0 1-2.974-.912v.09c0 3.523 2.263 6.463 5.265 7.132-.55.164-1.13.255-1.73.255q-.635 0-1.236-.135c.836 2.891 3.26 4.994 6.131 5.052-2.245 1.95-5.077 3.108-8.152 3.108q-.795-.002-1.566-.1C2.905 29.194 6.355 30.4 10.062 30.4c12.076 0 18.677-11.083 18.677-20.694l-.022-.941A14 14 0 0 0 32 5.007"/></g><defs><clipPath id="a"><path fill="#fff" d="M0 1.6h32v28.8H0z"/></clipPath></defs></svg>