<svg xmlns="http://www.w3.org/2000/svg" width="32" height="32" fill="none" viewBox="0 0 32 32"><g clip-path="url(#a)"><path fill="#fb0021" d="M31.33 8.515a3.8 3.8 0 0 0-1.021-1.73 4.04 4.04 0 0 0-1.784-1.012C26.02 5.1 15.99 5.1 15.99 5.1a100 100 0 0 0-12.519.64A4.2 4.2 0 0 0 1.69 6.775 3.96 3.96 0 0 0 .65 8.514 40.5 40.5 0 0 0 .001 16a40.4 40.4 0 0 0 .65 7.487 3.87 3.87 0 0 0 1.034 1.73c.494.48 1.11.828 1.787 1.012 2.537.673 12.519.673 12.519.673 4.187.049 8.373-.165 12.534-.64a4.04 4.04 0 0 0 1.784-1.012 3.8 3.8 0 0 0 1.02-1.73 39.5 39.5 0 0 0 .668-7.489 37 37 0 0 0-.667-7.517M12.802 20.667v-9.331l8.345 4.666z"/></g><defs><clipPath id="a"><path fill="#fff" d="M0 5.092h32V26.91H0z"/></clipPath></defs></svg>